<?xml version="1.0" encoding="UTF-8"?>
<svg id="Layer_2" data-name="Layer 2" xmlns="http://www.w3.org/2000/svg" viewBox="0 0 173.09 227.3">
  <defs>
    <style>
      .cls-1 { fill: #273a1d; }
      .cls-2 { fill: #a4b28b; fill-rule: evenodd; }
    </style>
  </defs>
  <g id="Layer_2-2" data-name="Layer 2">
    <g>
      <path class="cls-1" d="M172.15,65.28c0,37.84-20.49,66.8-97.3,66.8h-12.48v75.29c0,15.9,2.65,20.43,10.22,22.71,4.15,1.51,5.67,2.27,5.67,4.53,0,2.65-2.27,3.41-6.43,3.41H6.43c-4.15,0-6.43-.76-6.43-3.41,0-2.27,1.89-3.03,6.05-4.53,5.29-1.51,15.64-6.05,15.64-19.29L17.04,24.24c0-13.24-5.32-17.05-10.61-18.56C2.28,4.54.38,3.78.38,1.51.38-.38,2.65-.38,6.81-.38h78.33c77.94,0,86.81,27.8,87.01,65.66ZM75.21,113.43c26.1,0,46.93-23.85,46.93-56.39s-20.8-48.44-46.93-48.44h-4.92c-6.81,0-9.08,3.03-9.08,11.73l-1.51,93.1h16.43Z"/>
      <path class="cls-2" d="M21.13,217.45c-.15.08-.4.26-.49.36-.09.1-.46.6-.53.72-.05.09-.12.3-.14.44-.03.16-.07.53-.07.66,0,.06,0,.12,0,.14,0,.03.02.29.05.52.01.1.05.38.08.63.1.8.12.92.31,1.36.14.33.17.38.43.72.3.4.6.68.93.9.19.12.55.32.7.37.17.06.55.18.65.2.12.03.58.1.64.1.15,0,.34-.02.46-.05.14-.04.41-.15.67-.28.37-.19.47-.28.75-.69.22-.32.38-.67.49-1.03.11-.39.08-1.06-.06-1.63-.16-.63-.62-1.37-1.17-1.88-.22-.2-.64-.52-1.01-.75-.13-.08-.28-.18-.33-.21-.05-.04-.2-.12-.32-.19-.12-.07-.29-.17-.39-.22-.11-.07-.25-.13-.43-.2-.24-.09-.27-.1-.41-.11-.39-.02-.61,0-.82.12M15.21,219.88c-.12.09-.24.19-.39.35-.37.38-.54.72-.75,1.44-.12.43-.2,1.15-.19,1.79,0,.22.06.68.11.95.07.33.07.33.17.65.13.41.25.62.65,1.12.3.37.57.59,1.05.85.24.13.25.13.43.17.28.05.52.06.87.02.35-.04.46-.07.74-.2.26-.13.48-.25.6-.35.17-.14.38-.34.46-.45.17-.22.35-.63.54-1.16.08-.24.11-.35.13-.48.05-.37.04-.64-.03-.99-.01-.07-.03-.21-.04-.31l-.02-.18-.15-.36c-.14-.34-.2-.46-.35-.71-.02-.04-.07-.12-.12-.19-.16-.26-.29-.46-.37-.57-.21-.29-.42-.59-.46-.64-.08-.14-.28-.37-.41-.48-.18-.14-.5-.3-.73-.36-.17-.04-.67-.12-.8-.13-.26-.01-.41.01-.72.12-.13.05-.18.07-.25.12M12.55,227.01c-.11.06-.38.3-.47.42-.06.08-.17.24-.35.52-.04.06-.12.21-.19.34-.1.19-.13.27-.17.43-.08.31-.11.65-.09,1.01.02.46.09.76.31,1.31.14.34.18.42.38.72.16.23.23.31.44.5.41.37.69.54,1.2.72.4.15.59.19.94.23.11.01.23.03.28.04.31.06.77-.03,1.31-.26.26-.11.3-.13.48-.27.06-.04.17-.17.23-.25.1-.13.27-.56.32-.79.06-.25.07-.55.05-.9-.02-.31-.06-.56-.13-.81-.09-.29-.12-.34-.55-.86-.14-.16-.32-.35-.53-.53-.08-.07-.18-.16-.24-.21-.05-.05-.13-.11-.16-.14-.17-.13-.41-.31-.55-.41-.16-.11-.49-.37-.66-.51-.12-.1-.21-.16-.42-.27-.21-.11-.26-.14-.45-.18-.34-.08-.66-.03-.98.14M27.8,220.97c-.14.09-.23.19-.37.43-.15.25-.25.56-.3.88-.03.22-.09.59-.14.82-.18.92-.21,1.09-.23,1.6-.03.66,0,.85.13,1.2.1.25.21.4.48.64.09.08.27.26.4.39.12.13.32.3.42.36.04.02.15.08.26.13.23.1.49.17.63.16.05,0,.16,0,.23,0,.16,0,.48-.07.65-.14.21-.08.52-.27.67-.39.13-.11.36-.36.5-.53.16-.2.27-.38.4-.65.21-.44.29-.71.39-1.27.03-.17.03-.48,0-.67,0-.05-.03-.2-.06-.33-.04-.21-.06-.26-.15-.51-.13-.33-.32-.72-.42-.89-.15-.24-.41-.54-.62-.71-.15-.13-.47-.34-.59-.4-.07-.03-.18-.08-.24-.11-.06-.03-.14-.06-.17-.06-.03,0-.13-.03-.22-.06-.16-.05-.25-.07-.59-.1-.14-.01-.22,0-.39.01-.33.04-.5.1-.68.21M21.28,225.54c-.28.14-.68.37-.84.5-.12.09-.37.36-.49.51-.1.14-.35.57-.45.8-.04.08-.09.22-.12.31-.09.31-.24.93-.28,1.16-.09.57-.2,1.02-.34,1.37-.07.18-.32.73-.41.91-.13.24-.31.56-.4.72-.24.38-.43.64-.55.81-.34.47-.53.87-.63,1.33-.07.32-.12,1-.11,1.27.02.3.03.36.18.73.18.45.28.63.49.85.37.39.42.43.73.6.28.15.47.22.75.29.35.08.63.11.99.09.48-.02.94-.13,1.48-.34.38-.15.77-.38,1.22-.71.08-.06.23-.17.33-.24.82-.59.76-.55,1.35-.84.45-.22.74-.34,1.06-.43.33-.1.54-.14.76-.18.09-.01.23-.03.3-.05.07-.01.13-.02.14-.02,0,0,.06,0,.13-.02.06-.01.19-.02.29-.02.39,0,.73-.03,1.11-.11.39-.08.59-.14.9-.26.58-.23.96-.47,1.48-.92.36-.32.64-.69.86-1.14.15-.31.18-.39.23-.75.08-.47.1-.73.07-.88-.08-.47-.34-1.02-.67-1.42-.16-.19-.43-.41-.71-.56-.47-.25-1.03-.45-1.82-.64-.28-.07-.51-.14-.98-.3-.58-.2-.74-.3-1.66-.94-.74-.52-1-.7-1.23-.85-.12-.08-.25-.17-.29-.2-.22-.15-.53-.33-.75-.41-.23-.09-.51-.16-.87-.2-.22-.03-.33-.02-.59.02-.21.03-.51.09-.53.11,0,0-.07.03-.14.07"/>
    </g>
  </g>
</svg>
