<?xml version="1.0" encoding="UTF-8"?>
<svg id="Layer_2" data-name="Layer 2" xmlns="http://www.w3.org/2000/svg" viewBox="0 0 693.08 344.87">
  <defs>
    <style>
      .cls-1, .cls-2 {
        fill: #273a1d;
      }

      .cls-3 {
        fill: #c15c52;
        font-family: PTSerif-Caption, 'PT Serif Caption';
        font-size: 42.34px;
      }

      .cls-4 {
        fill: #a4b28b;
        fill-rule: evenodd;
      }

      .cls-2 {
        font-family: Briston-Regular, Briston;
        font-size: 63.51px;
      }

      .cls-5 {
        letter-spacing: -.08em;
      }

      .cls-6 {
        letter-spacing: -.02em;
      }

      .cls-7 {
        letter-spacing: -.04em;
      }

      .cls-8 {
        letter-spacing: 0em;
      }
    </style>
  </defs>
  <g id="Layer_2-2" data-name="Layer 2">
    <g>
      <path class="cls-1" d="M149.81,109.85c0,26.95-14.59,47.56-69.3,47.56h-8.89v53.61c0,11.32,1.89,14.55,7.28,16.17,2.96,1.08,4.04,1.62,4.04,3.23,0,1.89-1.62,2.43-4.58,2.43H23.66c-2.96,0-4.58-.54-4.58-2.43,0-1.62,1.35-2.16,4.31-3.23,3.77-1.08,11.14-4.3,11.14-13.73l-3.58-132.57c0-9.43-3.79-12.14-7.56-13.21-2.96-.81-4.31-1.35-4.31-3.23,0-1.62,1.62-2.16,4.58-2.16h55.78c55.51,0,70.38,19.81,70.38,47.56ZM81.59,147.17c18.59,0,33.42-16.98,33.42-40.15s-14.82-34.5-33.42-34.5h-3.5c-4.85,0-6.47,2.16-6.47,8.35l-1.08,66.29h11.05Z"/>
      <path class="cls-1" d="M324.2,217.98c-6.88,6.35-17.47,11.38-29.9,11.38-24.08,0-39.3-23.52-39.3-57.12,0-37.84,21.31-61.43,55.71-61.43,5.03,0,11.55,1.85,15.52,3.18l-.29-22.56c0-3.18-4.14-6.09-7.31-6.88-2.38-.79-3.7-.53-3.7-2.38,0-1.59,1.59-2.91,3.7-3.7l22.76-8.73c11.11-4.23,16.67-6.62,19.85-6.62,2.65,0,.9,3.33.9,4.92,0,0,.02,136.09.02,136.61,0,9.26,2.27,11.76,5.98,12.81,2.38.79,3.7,1.06,3.7,2.65-.26,1.59-2.38,2.38-4.5,2.91l-20.64,5.29c-11.64,2.65-16.41,3.97-19.58,3.7-2.65-.53-2.91-1.59-2.91-4.5v-9.53ZM326.22,121.65c-2.65-.79-7.58-2.12-10.49-2.12-12.97,0-25.44,14.16-25.44,46.71s15.65,46.71,28.88,46.71c1.59,0,5.46.53,7.05,0v-91.3Z"/>
      <path class="cls-1" d="M245.26,193.37c-11.93,31.42-40.7,46.76-73.36,34.37-33.15-12.58-43.15-44.45-31.22-75.87,11.83-31.17,40.24-47.8,73.39-35.21,32.66,12.4,43.03,45.55,31.2,76.72ZM210.05,175.7c6.41-31.81,2.44-51.16-6.6-53.46-9.78-2.58-20.93,14.13-27.78,46.35-6.51,32.06-2.43,51.16,6.85,53.55,9.53,2.49,20.59-13.98,27.54-46.44Z"/>
      <text class="cls-2" transform="translate(19.29 53.98)"><tspan x="0" y="0">t</tspan><tspan class="cls-8" x="17.21" y="0">h</tspan><tspan x="47.82" y="0">e</tspan></text>
      <text class="cls-3" transform="translate(160.62 271.72)"><tspan class="cls-6" x="0" y="0">Beyon</tspan><tspan class="cls-7" x="127.7" y="0">d</tspan><tspan class="cls-5" x="152.47" y="0"> </tspan><tspan x="160.68" y="0">t</tspan><tspan class="cls-6" x="178.38" y="0">h</tspan><tspan class="cls-7" x="205.52" y="0">e</tspan><tspan class="cls-5" x="227.79" y="0"> </tspan><tspan class="cls-6" x="236" y="0">ba</tspan><tspan x="284.4" y="0">g</tspan></text>
    </g>
  </g>
</svg>
