<?xml version="1.0" encoding="UTF-8"?>
<svg id="Layer_1" xmlns="http://www.w3.org/2000/svg" version="1.1" viewBox="0 0 1920 1080">
  <!-- Generator: Adobe Illustrator 30.3.0, SVG Export Plug-In . SVG Version: 2.1.3 Build 182)  -->
  <defs>
    <style>
      .st0 {
        fill: #273a1d;
      }

      .st1 {
        fill: #a4b28b;
        fill-rule: evenodd;
      }

      .st2 {
        fill: #c15c52;
      }
    </style>
  </defs>
  <path class="st0" d="M708.06,490.59c0,34.47-18.67,60.84-88.64,60.84h-11.37v68.57c0,14.48,2.41,18.61,9.31,20.68,3.79,1.38,5.17,2.07,5.17,4.14,0,2.41-2.07,3.1-5.86,3.1h-69.98c-3.79,0-5.86-.69-5.86-3.1,0-2.07,1.72-2.76,5.51-4.14,4.83-1.38,14.26-5.5,14.26-17.57l-4.59-169.57c0-12.06-4.84-15.52-9.67-16.9-3.79-1.03-5.51-1.72-5.51-4.14,0-2.07,2.07-2.76,5.86-2.76h71.35c71.01,0,90.02,25.34,90.02,60.84ZM620.8,538.33c23.78,0,42.74-21.71,42.74-51.36s-18.96-44.12-42.74-44.12h-4.48c-6.2,0-8.27,2.76-8.27,10.69l-1.38,84.8h14.13Z"/>
  <path class="st0" d="M931.12,628.9c-8.8,8.12-22.34,14.55-38.25,14.55-30.8,0-50.27-30.08-50.27-73.07,0-48.41,27.25-78.58,71.26-78.58,6.43,0,14.77,2.37,19.85,4.06l-.37-28.86c0-4.06-5.29-7.78-9.36-8.8-3.05-1.01-4.74-.68-4.74-3.05,0-2.03,2.03-3.72,4.74-4.74l29.11-11.17c14.22-5.42,21.33-8.46,25.39-8.46,3.39,0,1.15,4.26,1.15,6.29,0,0,.03,174.07.03,174.75,0,11.85,2.91,15.04,7.65,16.39,3.05,1.02,4.74,1.36,4.74,3.39-.34,2.03-3.05,3.05-5.75,3.72l-26.4,6.77c-14.89,3.39-20.99,5.08-25.05,4.74-3.39-.68-3.72-2.03-3.72-5.75v-12.19ZM933.71,505.69c-3.39-1.02-9.69-2.71-13.42-2.71-16.59,0-32.54,18.11-32.54,59.75s20.01,59.75,36.94,59.75c2.03,0,6.99.68,9.02,0v-116.78Z"/>
  <path class="st0" d="M830.15,597.43c-15.26,40.19-52.07,59.82-93.84,43.96-42.41-16.1-55.2-56.86-39.94-97.05,15.14-39.88,51.47-61.14,93.88-45.04,41.77,15.86,55.04,58.26,39.9,98.13ZM785.11,574.83c8.21-40.69,3.11-65.44-8.44-68.38-12.51-3.3-26.78,18.08-35.54,59.29-8.33,41.01-3.11,65.44,8.76,68.49,12.19,3.18,26.34-17.88,35.22-59.4Z"/>
  <g>
    <path class="st0" d="M541.1,385.25v-.98c0-.57.24-.98.89-.98,1.71,0,3.9-.57,6.74-2.27,3.82-2.27,5.04-6.17,6.34-6.17h.16c.57,0,.98.32.98,1.95v6.58l4.79-.08c.81,0,1.06.33,1.06.81v1.14c0,.49-.32.81-1.06.81h-4.96v22.75c0,2.76,1.14,3.98,2.84,3.98,1.06,0,1.95-.08,2.76-.32.65-.16,1.38.49.73,1.38-2.44,3.09-4.63,5.36-9.5,5.36-6.74,0-9.18-5.04-9.18-9.75v-23.4h-1.54c-.81,0-1.06-.33-1.06-.81Z"/>
    <path class="st0" d="M565.31,379c-.73-.24-1.14-.16-1.14-.73,0-.49.57-.89,1.14-1.14l6.99-2.68c3.41-1.3,5.12-2.03,6.09-2.03.81,0,.89.89.89,1.38v16c1.46-3.57,4.96-6.82,9.67-6.82,7.15,0,10.24,4.63,10.24,9.83v20.47c0,2.84.57,3.74,1.79,4.06.89.24,1.22.41,1.22.97s-.49.73-1.38.73h-15.6c-.89,0-1.38-.16-1.38-.73s.32-.73,1.3-.97c1.14-.33,1.71-1.22,1.71-4.06v-19.82c0-2.27-1.46-3.9-3.74-3.9s-3.82,1.63-3.82,3.9v19.82c0,2.84.57,3.74,1.71,4.06.98.24,1.3.41,1.3.97s-.49.73-1.38.73h-15.6c-.89,0-1.38-.16-1.38-.73s.32-.73,1.3-.97c1.14-.33,1.71-1.22,1.71-4.06v-32.5c0-.98-.65-1.54-1.62-1.79Z"/>
    <path class="st0" d="M636.88,397.68c0,1.71-1.54,2.44-3.49,2.44h-17.22c1.22,9.18,6.58,12.67,11.54,12.67,2.92,0,4.87-.89,6.74-2.44.57-.41,1.62.16,1.3,1.22-1.14,3.49-6.34,7.88-14.3,7.88-9.91,0-17.95-7.31-17.95-17.87s7.72-18.52,18.04-18.52c9.18,0,15.35,6.74,15.35,14.62ZM621.12,397.36c3.01,0,3.98-2.03,3.98-4.63,0-3.57-2.11-6.91-4.31-6.91-2.44,0-4.87,4.14-4.87,10.24,0,.41,0,.89.81,1.3h4.39Z"/>
  </g>
  <g>
    <path class="st0" d="M1263,576.13l-32.5,65.33c-17.26,35.54-40.11,65.04-66.18,65.04-19.97,0-30.47-9.48-30.47-22.34,0-11.85,9.82-19.63,20.99-19.97,8.46,0,12.68.26,20.8,8.04,9.48,9.14,24.14-7.21,41.4-37.34l-46.86-96.05c-11.17-25.39-17.37-29.05-25.83-32.78-2.71-1.35-5.08-2.71-5.08-4.4,0-2.03,2.37-2.71,5.08-2.71h67.7c3.05,0,6.43.34,6.43,2.37,0,1.69-2.37,3.05-5.76,5.42-3.72,3.39-1.35,6.77,2.03,14.89l28.09,61.61,6.09-13.2c33.51-82.93,65.67-125.92,116.44-125.92,22.68,0,37.57,13.2,37.57,29.11,0,10.83-2.71,17.26-7.45,17.26-4.4,0-16.59-10.49-43.33-10.49-35.2,0-57.71,31.81-89.19,96.13Z"/>
    <g>
      <path class="st0" d="M1080.14,623.48c-8.8,8.12-22.34,14.55-38.25,14.55-30.8,0-50.27-30.08-50.27-73.07,0-48.41,27.25-78.58,71.26-78.58,6.43,0,14.77,2.37,19.85,4.06l-.37-28.86c0-4.06-5.29-7.78-9.36-8.8-3.05-1.01-4.74-.68-4.74-3.05,0-2.03,2.03-3.72,4.74-4.74l29.11-11.17c14.22-5.42,21.33-8.46,25.39-8.46,3.39,0,1.15,4.26,1.15,6.29,0,0,.03,174.07.03,174.75,0,11.85,2.91,15.04,7.65,16.39,3.05,1.02,4.74,1.36,4.74,3.39-.34,2.03-3.05,3.05-5.75,3.72l-26.4,6.77c-14.89,3.39-20.99,5.08-25.05,4.74-3.39-.68-3.72-2.03-3.72-5.75v-12.19ZM1082.72,500.26c-3.39-1.02-9.69-2.71-13.42-2.71-16.59,0-32.54,18.11-32.54,59.75s20.01,59.75,36.94,59.75c2.03,0,6.99.68,9.02,0v-116.78Z"/>
      <path class="st1" d="M543.45,628.22c-.19.1-.51.33-.63.46-.12.13-.58.76-.67.92-.06.11-.15.38-.19.56-.04.21-.09.68-.08.85,0,.08,0,.16,0,.17,0,.04.02.37.06.67.02.13.06.49.1.8.12,1.03.16,1.18.4,1.74.18.42.22.48.55.92.39.51.76.87,1.19,1.15.24.16.71.4.89.47.22.08.71.23.83.26.16.04.74.13.82.13.19,0,.44-.02.59-.06.18-.05.53-.19.85-.36.47-.24.6-.36.96-.88.28-.41.49-.85.62-1.31.14-.5.11-1.36-.08-2.09-.21-.8-.8-1.76-1.49-2.41-.28-.26-.82-.66-1.29-.96-.16-.1-.35-.23-.42-.27-.07-.05-.25-.16-.41-.24-.15-.08-.38-.21-.5-.28-.15-.09-.32-.17-.55-.26-.3-.12-.35-.13-.52-.14-.5-.03-.78,0-1.05.15M535.89,631.33c-.16.11-.3.24-.5.45-.47.49-.69.92-.96,1.84-.16.55-.25,1.47-.24,2.29,0,.28.08.87.15,1.22.08.42.09.42.21.84.16.53.32.79.84,1.43.38.47.73.75,1.34,1.08.31.17.31.17.55.21.36.07.67.07,1.11.03.45-.05.59-.09.94-.26.33-.16.61-.32.77-.45.22-.17.48-.43.59-.58.21-.28.45-.8.69-1.48.1-.3.14-.44.16-.62.06-.47.05-.82-.04-1.26-.02-.09-.04-.26-.05-.39l-.02-.23-.19-.46c-.18-.43-.25-.59-.45-.91-.03-.05-.1-.16-.15-.25-.2-.33-.37-.59-.47-.73-.27-.37-.54-.75-.58-.82-.1-.18-.35-.47-.53-.61-.23-.18-.64-.39-.94-.46-.22-.05-.85-.16-1.02-.17-.33-.02-.52.02-.92.16-.16.06-.23.09-.31.15M532.48,640.45c-.14.08-.49.39-.6.54-.08.11-.21.3-.44.66-.05.07-.15.27-.24.44-.12.25-.16.35-.22.55-.1.4-.14.84-.12,1.29.03.59.12.97.4,1.68.17.44.23.54.48.92.2.3.29.4.56.64.52.47.89.69,1.54.93.52.19.75.25,1.2.29.14.01.29.03.35.05.4.08.98-.03,1.68-.33.33-.14.38-.17.61-.34.07-.05.22-.21.3-.32.12-.17.34-.71.4-1.01.07-.32.09-.7.07-1.15-.02-.4-.08-.72-.17-1.04-.11-.37-.16-.44-.7-1.1-.17-.21-.41-.45-.68-.68-.1-.08-.24-.2-.3-.27-.07-.06-.16-.14-.21-.18-.22-.17-.53-.39-.71-.52-.21-.14-.62-.47-.84-.65-.15-.13-.27-.21-.53-.35-.27-.15-.34-.17-.57-.23-.43-.1-.85-.04-1.26.18M551.98,632.72c-.19.12-.29.24-.48.55-.19.32-.32.72-.38,1.13-.04.29-.12.75-.18,1.04-.23,1.18-.27,1.4-.29,2.05-.03.84,0,1.09.17,1.54.13.32.27.51.61.82.12.1.34.33.51.5.16.16.41.39.53.47.05.03.19.1.33.17.29.13.62.21.81.21.07,0,.2,0,.3,0,.21,0,.62-.09.84-.17.27-.11.67-.34.85-.5.16-.14.46-.46.63-.68.2-.26.34-.48.51-.83.27-.56.38-.91.5-1.63.04-.21.04-.62,0-.85,0-.07-.04-.25-.07-.42-.05-.27-.07-.33-.2-.65-.17-.43-.4-.92-.54-1.14-.2-.31-.53-.69-.79-.91-.19-.16-.6-.43-.76-.51-.09-.04-.22-.11-.3-.15-.08-.04-.18-.07-.22-.08-.04,0-.17-.04-.29-.08-.21-.07-.32-.09-.76-.12-.18-.01-.28-.01-.5.02-.42.06-.64.12-.86.26M543.65,638.58c-.36.17-.86.47-1.08.63-.16.12-.48.46-.63.65-.13.17-.44.73-.58,1.02-.05.1-.11.28-.15.4-.12.4-.31,1.19-.36,1.49-.12.73-.26,1.3-.43,1.75-.09.23-.4.93-.52,1.16-.16.31-.39.72-.52.92-.31.48-.54.82-.7,1.04-.44.6-.68,1.11-.8,1.7-.09.41-.16,1.28-.14,1.62.02.38.04.46.23.93.23.58.36.81.62,1.08.47.5.53.55.94.76.36.19.6.28.96.37.45.11.8.14,1.27.12.62-.03,1.2-.17,1.89-.44.49-.19.99-.48,1.56-.91.11-.08.3-.22.43-.31,1.05-.75.98-.71,1.73-1.07.58-.28.95-.43,1.35-.55.43-.12.69-.18.98-.23.12-.02.29-.04.38-.06.09-.02.17-.03.18-.03,0,0,.08,0,.16-.02.08-.01.24-.02.37-.02.49,0,.94-.04,1.42-.14.5-.1.76-.18,1.15-.34.74-.3,1.23-.6,1.89-1.18.46-.41.82-.88,1.1-1.46.19-.4.23-.5.3-.96.1-.6.12-.94.09-1.13-.1-.6-.43-1.3-.85-1.82-.2-.24-.55-.52-.91-.71-.6-.32-1.32-.58-2.32-.81-.36-.08-.65-.17-1.25-.38-.74-.26-.95-.38-2.12-1.2-.95-.67-1.28-.9-1.57-1.09-.15-.1-.32-.21-.38-.25-.28-.19-.68-.42-.96-.53-.3-.12-.66-.2-1.11-.25-.29-.03-.42-.03-.75.02-.26.04-.65.12-.68.14,0,0-.09.04-.18.09"/>
      <path class="st1" d="M658.44,647.62c-.04.21-.06.61-.04.77.02.17.23.93.3,1.1.05.12.2.36.32.49.14.16.48.5.61.6.06.05.12.1.13.11.03.03.3.21.56.37.11.07.42.26.68.43.88.55,1.01.62,1.61.78.44.12.51.13,1.07.15.64.02,1.16-.04,1.64-.2.27-.09.76-.3.92-.4.2-.12.63-.41.73-.48.13-.1.57-.49.62-.56.12-.14.26-.35.32-.5.08-.17.18-.53.26-.89.11-.52.1-.7-.08-1.3-.14-.48-.35-.92-.63-1.31-.3-.42-.99-.94-1.67-1.25-.75-.34-1.87-.48-2.81-.35-.38.05-1.03.22-1.56.4-.18.06-.4.13-.48.16-.08.02-.28.1-.44.17-.16.07-.4.16-.53.21-.16.06-.34.14-.54.26-.28.16-.32.19-.44.32-.34.37-.48.61-.54.91M656.1,655.46c-.01.19,0,.39.03.67.08.67.28,1.11.83,1.9.33.47.99,1.12,1.63,1.63.22.17.72.49,1.04.65.38.2.38.2.78.36.51.21.82.25,1.64.25.61,0,1.04-.1,1.68-.36.32-.13.33-.14.52-.3.28-.24.48-.47.72-.85.25-.38.31-.52.39-.89.08-.36.13-.68.13-.88,0-.28-.03-.64-.08-.83-.08-.34-.34-.86-.72-1.47-.17-.27-.26-.39-.38-.51-.32-.34-.61-.56-1-.77-.08-.04-.23-.13-.34-.21l-.19-.13-.48-.14c-.45-.14-.62-.17-.99-.23-.06,0-.18-.03-.28-.04-.39-.05-.69-.09-.87-.1-.46-.02-.92-.05-1.01-.06-.2-.03-.59-.02-.81.03-.29.06-.71.26-.95.44-.18.14-.66.56-.77.69-.22.25-.32.42-.45.81-.06.16-.07.23-.08.34M661.06,663.84c-.03.15,0,.62.04.81.03.13.1.36.24.76.03.08.11.29.19.46.11.25.17.35.29.51.25.33.56.64.93.91.48.35.83.52,1.56.74.45.14.56.16,1.02.2.36.03.49.02.85-.03.69-.11,1.09-.26,1.69-.61.47-.28.67-.43.98-.75.1-.1.21-.21.26-.25.31-.26.59-.78.8-1.51.1-.35.11-.4.12-.69,0-.09-.03-.31-.06-.43-.05-.2-.34-.71-.53-.95-.21-.26-.49-.52-.85-.78-.33-.23-.6-.39-.92-.52-.36-.15-.44-.15-1.29-.15-.27,0-.61.04-.96.1-.13.02-.31.06-.4.07-.09.01-.21.04-.27.05-.26.06-.64.16-.85.22-.24.07-.76.19-1.03.24-.2.04-.33.08-.61.19-.28.12-.35.15-.54.3-.35.27-.57.63-.65,1.09M667.31,643.82c-.03.22,0,.38.13.71.13.35.35.7.64,1,.2.21.51.56.7.79.77.92.92,1.09,1.41,1.51.63.55.85.69,1.3.83.33.1.57.11,1.02.04.15-.02.47-.06.7-.08.23-.02.56-.08.7-.12.05-.02.2-.09.34-.15.28-.14.56-.35.67-.5.04-.05.12-.16.18-.24.13-.16.32-.54.39-.76.09-.28.15-.73.15-.98,0-.22-.07-.65-.13-.92-.07-.32-.16-.57-.33-.92-.27-.56-.47-.87-.95-1.41-.14-.16-.45-.42-.66-.54-.06-.03-.22-.13-.37-.21-.24-.13-.3-.15-.63-.25-.44-.14-.97-.27-1.23-.3-.36-.04-.87-.02-1.2.04-.25.05-.71.19-.87.27-.09.04-.23.11-.3.14-.08.04-.17.09-.2.12-.03.03-.14.11-.24.17-.19.12-.27.2-.57.51-.12.13-.19.21-.3.4-.22.36-.31.58-.34.84M666.62,653.98c-.09.39-.18.97-.19,1.24,0,.2.05.66.11.9.05.21.29.8.43,1.09.05.1.15.27.22.37.23.34.73.99.93,1.21.5.55.85,1.02,1.09,1.43.12.21.47.9.57,1.14.14.32.31.76.39.98.18.55.3.94.37,1.2.19.72.44,1.23.82,1.7.26.32.89.93,1.18,1.12.31.22.38.25.87.4.59.18.86.23,1.23.2.68-.05.76-.07,1.18-.25.37-.16.6-.29.89-.51.37-.28.61-.54.89-.92.36-.5.62-1.04.85-1.75.16-.5.24-1.07.27-1.78,0-.14.02-.37.02-.53.07-1.29.06-1.2.25-2.02.15-.63.26-1.01.42-1.4.17-.41.29-.65.44-.9.06-.1.15-.25.19-.33.04-.08.09-.15.09-.16,0,0,.05-.07.08-.14.04-.07.14-.2.22-.3.31-.38.56-.75.79-1.19.24-.45.34-.7.46-1.11.24-.77.31-1.34.27-2.21-.03-.62-.17-1.19-.44-1.77-.19-.4-.25-.49-.56-.83-.4-.45-.65-.69-.82-.78-.54-.3-1.28-.48-1.95-.48-.31,0-.75.1-1.13.26-.63.26-1.28.66-2.09,1.3-.29.22-.54.4-1.09.73-.67.41-.89.5-2.27.89-1.12.32-1.5.43-1.84.54-.17.05-.36.11-.43.13-.33.09-.75.27-1.01.41-.28.16-.57.38-.9.71-.2.2-.28.31-.46.6-.14.23-.32.58-.32.62,0,0-.02.09-.05.2"/>
      <path class="st1" d="M628.73,670.36c-.05.2-.1.6-.09.77.01.17.16.95.22,1.12.04.12.18.37.28.52.13.17.44.53.56.64.06.05.11.11.12.12.02.03.28.23.53.41.1.08.4.29.65.48.84.61.97.68,1.55.89.43.15.5.17,1.05.22.64.06,1.16.04,1.65-.09.28-.07.78-.24.95-.33.2-.11.65-.36.76-.43.13-.09.6-.45.66-.51.13-.13.28-.34.36-.48.09-.16.22-.52.32-.87.15-.51.15-.69,0-1.31-.11-.49-.29-.94-.54-1.35-.27-.44-.92-1-1.58-1.36-.73-.39-1.83-.61-2.78-.55-.38.03-1.04.15-1.58.29-.19.05-.41.1-.49.12-.08.02-.29.08-.45.13-.17.06-.41.13-.54.17-.16.05-.35.12-.56.23-.29.14-.33.17-.46.29-.37.35-.52.57-.6.87M625.85,678.01c-.03.19-.03.39-.02.67.04.67.2,1.13.69,1.95.29.49.91,1.19,1.52,1.74.21.19.69.54.99.72.36.22.37.23.76.41.49.24.8.31,1.62.36.61.04,1.05-.02,1.71-.24.33-.11.34-.11.53-.26.3-.22.51-.44.77-.79.27-.36.34-.49.46-.86.11-.35.18-.67.19-.87.02-.28.01-.64-.02-.83-.06-.35-.28-.88-.62-1.52-.15-.28-.23-.4-.34-.54-.3-.36-.57-.6-.95-.83-.08-.05-.22-.15-.32-.23l-.18-.14-.46-.18c-.44-.17-.61-.22-.97-.29-.05-.01-.18-.04-.28-.06-.38-.08-.68-.14-.86-.16-.46-.05-.92-.11-1-.13-.2-.05-.59-.06-.81-.03-.29.04-.72.21-.98.37-.19.12-.7.52-.82.63-.24.23-.34.39-.51.78-.07.16-.09.23-.11.33M630.21,686.72c-.04.15-.05.62-.02.81.02.13.08.36.18.78.02.08.09.3.16.47.1.26.14.36.26.53.22.35.52.68.86.97.45.38.79.58,1.5.85.44.17.55.2,1,.27.35.05.49.06.85.02.7-.06,1.11-.18,1.73-.49.49-.25.7-.38,1.03-.68.1-.09.23-.19.27-.23.33-.24.64-.74.9-1.46.12-.34.14-.39.17-.68,0-.09,0-.31-.03-.44-.04-.21-.29-.73-.46-.98-.19-.27-.45-.55-.8-.84-.31-.26-.58-.43-.88-.58-.35-.17-.43-.18-1.28-.24-.27-.02-.61,0-.96.04-.13.01-.31.03-.4.04-.09,0-.21.02-.27.03-.27.04-.65.12-.86.16-.25.05-.77.14-1.05.17-.2.02-.34.05-.62.15-.29.1-.36.13-.56.26-.37.25-.61.59-.72,1.05M637.84,667.18c-.04.21-.02.38.08.72.11.36.3.72.57,1.04.18.22.47.6.65.84.7.97.84,1.15,1.3,1.61.59.6.8.75,1.24.92.32.12.56.15,1.01.11.16-.01.47-.03.71-.03.23,0,.56-.04.7-.07.05-.01.21-.07.35-.13.29-.12.58-.31.7-.45.04-.05.13-.15.2-.22.14-.15.36-.51.44-.73.11-.27.2-.72.21-.97,0-.22-.02-.65-.07-.93-.05-.32-.12-.58-.26-.94-.23-.58-.41-.9-.85-1.47-.13-.17-.42-.45-.62-.59-.05-.04-.21-.14-.36-.23-.23-.15-.29-.17-.61-.3-.43-.17-.95-.33-1.21-.38-.36-.07-.87-.09-1.2-.04-.25.03-.73.14-.89.21-.09.04-.23.09-.31.12-.08.03-.18.08-.21.11-.03.03-.15.1-.25.16-.19.11-.29.18-.61.47-.13.12-.2.2-.32.37-.24.35-.35.56-.4.81M636.44,677.27c-.12.38-.25.95-.27,1.22-.02.2,0,.66.05.9.04.22.23.82.35,1.12.04.11.13.28.19.38.21.36.66,1.04.85,1.28.46.58.78,1.07.99,1.51.11.22.41.93.49,1.17.12.33.26.78.32,1,.14.56.23.96.28,1.22.14.73.35,1.26.7,1.75.24.34.83.99,1.09,1.2.29.24.36.28.84.46.58.22.84.29,1.21.28.69,0,.76-.02,1.2-.16.38-.13.62-.25.93-.45.39-.26.65-.49.95-.85.4-.47.69-.99.97-1.68.19-.49.32-1.05.39-1.76.01-.13.04-.37.06-.53.16-1.28.15-1.2.39-2,.19-.62.33-.99.52-1.36.2-.4.33-.63.5-.87.07-.1.16-.24.21-.32.05-.08.1-.15.1-.15,0,0,.05-.07.09-.13.04-.07.15-.19.24-.29.34-.36.61-.71.87-1.13.27-.44.39-.68.54-1.07.29-.75.4-1.31.43-2.18.02-.62-.08-1.2-.32-1.8-.16-.42-.22-.51-.5-.87-.37-.48-.6-.73-.76-.83-.51-.34-1.25-.57-1.91-.61-.31-.02-.76.05-1.14.18-.64.22-1.32.57-2.18,1.15-.3.2-.57.36-1.13.65-.7.37-.93.44-2.33.73-1.14.24-1.53.32-1.87.41-.17.04-.37.09-.44.1-.33.07-.77.21-1.04.34-.29.14-.59.34-.94.64-.22.19-.31.29-.5.57-.15.22-.36.55-.36.59,0,0-.03.09-.06.19"/>
      <path class="st1" d="M608.61,641.42c-.04.21-.07.6-.05.77.02.17.21.94.27,1.11.05.12.2.36.31.5.14.17.47.51.59.61.06.05.12.1.13.11.03.03.3.22.55.38.11.07.41.27.68.44.87.57,1,.63,1.59.81.44.13.51.14,1.06.17.64.03,1.16-.02,1.65-.17.27-.08.76-.28.93-.38.2-.12.63-.39.74-.47.13-.1.58-.48.63-.54.12-.14.26-.35.33-.49.08-.17.19-.53.27-.89.12-.52.11-.69-.06-1.3-.13-.48-.34-.92-.61-1.32-.29-.43-.97-.96-1.65-1.28-.74-.36-1.86-.52-2.8-.41-.38.05-1.03.2-1.57.37-.18.06-.4.12-.48.15-.08.02-.28.09-.45.16-.16.06-.4.15-.53.2-.16.06-.34.14-.55.25-.28.16-.32.18-.44.31-.35.37-.49.6-.56.9M606.12,649.21c-.02.19-.01.39.02.67.07.67.26,1.12.79,1.91.32.47.97,1.14,1.6,1.66.22.18.72.5,1.03.67.37.2.38.21.78.38.51.22.81.27,1.63.28.61,0,1.05-.08,1.69-.33.32-.13.33-.13.52-.29.28-.24.49-.47.73-.83.25-.38.32-.51.41-.89.09-.36.14-.67.15-.88,0-.28-.02-.64-.06-.83-.08-.34-.32-.86-.69-1.48-.17-.27-.25-.39-.37-.52-.32-.35-.6-.57-.99-.78-.08-.04-.23-.14-.33-.21l-.19-.13-.47-.15c-.45-.14-.62-.19-.99-.24-.05,0-.18-.03-.28-.04-.39-.06-.69-.1-.86-.11-.46-.03-.92-.07-1.01-.08-.2-.04-.59-.03-.81.01-.29.06-.71.24-.96.42-.18.13-.67.55-.78.67-.23.25-.32.41-.47.8-.06.16-.08.23-.09.34M610.92,657.69c-.03.15-.02.62.02.81.03.13.09.36.22.77.03.08.11.29.18.46.11.25.16.35.28.52.24.33.55.65.91.92.47.36.82.53,1.54.77.45.15.56.17,1.01.22.36.04.49.03.85-.02.69-.1,1.1-.24,1.7-.58.48-.27.68-.42,1-.73.1-.09.22-.2.26-.24.32-.26.6-.77.83-1.5.11-.35.12-.4.13-.69,0-.09-.02-.31-.05-.43-.05-.2-.33-.72-.51-.96-.2-.26-.48-.52-.84-.79-.32-.24-.6-.4-.91-.54-.35-.15-.43-.16-1.29-.17-.27,0-.61.03-.96.09-.13.02-.31.05-.4.06-.09.01-.21.03-.27.05-.27.06-.64.15-.85.21-.24.07-.76.18-1.04.22-.2.03-.33.07-.61.18-.28.11-.35.15-.54.29-.36.26-.58.62-.67,1.08M617.54,637.78c-.03.22,0,.38.11.72.12.35.34.71.62,1.01.19.21.5.57.69.81.75.94.9,1.1,1.38,1.54.62.57.83.71,1.29.86.32.11.57.12,1.02.06.15-.02.47-.05.7-.07.23-.02.56-.07.7-.11.05-.02.2-.08.34-.15.28-.14.56-.34.68-.49.04-.05.13-.16.19-.23.13-.16.33-.53.41-.75.09-.28.17-.73.16-.98,0-.22-.06-.65-.11-.92-.07-.32-.15-.57-.31-.92-.26-.57-.46-.88-.92-1.43-.14-.16-.45-.43-.65-.56-.06-.04-.22-.13-.37-.21-.24-.13-.3-.16-.62-.27-.44-.15-.97-.28-1.22-.32-.36-.05-.87-.04-1.21.02-.25.05-.72.18-.88.25-.09.04-.23.1-.31.14-.08.04-.17.09-.2.12-.03.03-.14.1-.24.17-.19.12-.28.19-.58.5-.13.13-.19.21-.31.39-.23.36-.32.57-.35.83M616.66,647.93c-.1.39-.2.96-.21,1.24,0,.2.04.66.1.9.05.21.27.81.41,1.1.05.1.14.27.21.37.23.35.71,1,.91,1.23.49.56.83,1.03,1.06,1.45.12.22.45.91.55,1.15.14.32.3.76.37.99.17.55.28.95.34,1.2.18.72.41,1.24.79,1.71.26.33.88.94,1.15,1.15.31.22.38.26.86.42.59.19.85.24,1.23.22.69-.04.76-.06,1.19-.23.38-.15.6-.28.9-.5.37-.28.62-.53.91-.9.37-.49.64-1.02.88-1.73.17-.5.26-1.07.3-1.78,0-.14.02-.37.03-.53.1-1.29.08-1.2.29-2.02.16-.63.28-1.01.45-1.39.18-.41.3-.64.45-.89.06-.1.15-.25.2-.33.05-.08.09-.15.1-.16,0,0,.05-.07.09-.14.04-.07.14-.2.22-.3.32-.37.57-.74.81-1.18.24-.45.35-.7.49-1.1.25-.76.33-1.33.31-2.2-.01-.62-.15-1.19-.41-1.78-.18-.41-.24-.5-.54-.84-.39-.46-.64-.7-.8-.79-.53-.31-1.27-.51-1.94-.51-.31,0-.75.09-1.13.24-.63.25-1.29.64-2.12,1.26-.29.22-.55.39-1.1.71-.68.4-.9.49-2.29.85-1.13.3-1.51.4-1.85.5-.17.05-.37.11-.44.13-.33.09-.76.25-1.02.39-.28.15-.58.37-.91.69-.21.2-.29.3-.47.59-.14.23-.33.57-.33.61,0,0-.02.09-.05.2"/>
      <path class="st1" d="M583.12,656.64c-.13.17-.32.52-.37.68-.06.17-.2.94-.22,1.12,0,.13.03.41.07.58.05.21.21.66.28.8.03.07.07.14.07.16.01.04.18.32.34.58.07.11.26.42.43.68.55.88.64,1,1.1,1.41.34.3.4.35.89.6.57.3,1.06.47,1.57.54.28.04.81.06,1.01.05.23-.02.74-.09.87-.12.16-.03.73-.2.8-.23.17-.08.39-.21.51-.31.14-.12.39-.4.62-.69.33-.42.39-.58.5-1.21.08-.49.08-.98,0-1.45-.08-.51-.48-1.28-.96-1.86-.53-.64-1.47-1.25-2.37-1.55-.36-.12-1.02-.25-1.58-.32-.19-.02-.41-.05-.5-.07-.08-.01-.3-.03-.47-.04-.17-.01-.43-.03-.57-.04-.17-.02-.37-.02-.61,0-.32.02-.37.03-.53.1-.47.19-.7.34-.89.59M577.59,662.66c-.1.17-.17.35-.27.62-.22.64-.24,1.12-.08,2.07.09.56.4,1.44.76,2.18.12.25.44.76.65,1.04.25.34.26.35.55.67.37.41.63.58,1.37.94.55.26.98.37,1.67.41.35.02.36.02.59-.04.36-.1.64-.22,1.01-.45.39-.23.5-.33.75-.63.23-.29.41-.55.51-.74.12-.25.25-.59.29-.78.07-.34.07-.92,0-1.64-.03-.32-.06-.46-.11-.63-.14-.45-.3-.77-.57-1.13-.05-.07-.15-.22-.21-.33l-.12-.2-.37-.34c-.34-.32-.48-.43-.79-.64-.05-.03-.15-.1-.24-.16-.32-.22-.58-.38-.74-.46-.4-.22-.81-.45-.88-.5-.17-.12-.52-.28-.74-.33-.28-.07-.75-.08-1.05-.02-.22.04-.84.22-.99.28-.31.13-.47.24-.76.53-.12.12-.17.18-.22.27M578.38,672.37c-.09.13-.28.56-.32.74-.03.13-.07.37-.12.79-.01.09-.02.31-.03.49,0,.27,0,.39.04.59.08.4.23.82.44,1.22.28.52.52.83,1.08,1.35.34.32.44.39.83.62.31.18.43.24.78.34.67.2,1.1.25,1.79.19.55-.05.79-.1,1.21-.24.13-.04.28-.09.34-.11.4-.1.87-.45,1.38-1.01.24-.27.27-.31.41-.57.04-.08.11-.29.13-.42.04-.21,0-.79-.06-1.08-.07-.32-.22-.68-.43-1.07-.19-.35-.37-.62-.6-.87-.26-.29-.33-.33-1.1-.7-.25-.12-.57-.23-.91-.33-.13-.03-.3-.08-.39-.11-.09-.03-.21-.06-.26-.07-.27-.06-.64-.13-.86-.17-.25-.04-.76-.16-1.04-.23-.19-.05-.33-.07-.63-.09-.3-.02-.38-.01-.62.03-.44.09-.79.32-1.06.7M592.75,657.09c-.12.18-.16.34-.2.7-.04.37.01.79.14,1.18.09.27.21.73.29,1.02.29,1.16.35,1.38.61,1.98.33.78.46.99.81,1.32.25.23.46.35.9.48.15.05.45.15.67.23.21.08.54.17.68.2.05,0,.22.01.37,0,.31,0,.66-.07.82-.16.06-.03.18-.09.27-.13.19-.09.52-.34.68-.51.2-.21.46-.59.56-.82.09-.2.22-.61.28-.88.07-.32.1-.58.11-.97,0-.62-.05-.99-.24-1.68-.06-.21-.22-.57-.35-.78-.04-.06-.15-.21-.24-.35-.16-.22-.2-.27-.45-.5-.33-.32-.76-.66-.98-.8-.31-.2-.77-.4-1.1-.49-.24-.06-.73-.14-.9-.14-.1,0-.25,0-.34,0-.09,0-.19,0-.23.02-.04.01-.17.03-.29.05-.22.03-.33.06-.74.21-.17.06-.26.11-.44.23-.36.23-.53.39-.67.6M587.69,665.93c-.26.31-.58.79-.71,1.03-.09.18-.24.62-.29.86-.04.21-.09.85-.09,1.17,0,.11.02.3.03.42.06.41.23,1.21.31,1.5.21.71.32,1.28.35,1.77.02.25.03,1.01.02,1.27-.01.35-.05.82-.08,1.05-.08.57-.14.98-.19,1.24-.14.73-.14,1.3,0,1.88.1.41.4,1.22.57,1.53.18.33.23.39.61.74.45.42.67.58,1.02.72.64.25.72.27,1.17.29.4.02.66,0,1.03-.07.46-.09.79-.22,1.2-.43.54-.29,1.01-.66,1.52-1.2.36-.38.69-.86,1.02-1.49.06-.12.18-.33.25-.46.63-1.13.58-1.06,1.11-1.71.41-.5.68-.8.99-1.07.33-.29.54-.46.79-.62.1-.07.24-.16.32-.22.07-.05.14-.1.15-.1,0,0,.07-.04.14-.09.07-.05.21-.12.33-.18.45-.21.83-.43,1.23-.73.41-.31.61-.48.9-.79.55-.58.86-1.07,1.21-1.87.25-.57.37-1.14.38-1.79,0-.45-.01-.55-.14-.99-.17-.58-.29-.9-.4-1.06-.35-.5-.94-.99-1.54-1.28-.28-.14-.72-.24-1.12-.26-.68-.04-1.44.04-2.45.25-.36.08-.66.12-1.3.18-.78.08-1.02.06-2.43-.19-1.15-.2-1.54-.27-1.89-.32-.18-.03-.38-.06-.45-.07-.33-.06-.79-.09-1.09-.07-.32.02-.68.1-1.12.25-.27.09-.39.15-.67.34-.22.15-.54.38-.56.41,0,0-.06.08-.13.16"/>
      <path class="st1" d="M575.19,626.27c-.13.17-.32.52-.37.68-.06.17-.2.94-.22,1.12,0,.13.03.41.07.58.05.21.21.66.28.8.03.07.07.14.07.16.01.04.18.32.34.58.07.11.26.42.43.68.55.88.64,1,1.1,1.41.34.3.4.35.89.6.57.3,1.06.47,1.57.54.28.04.81.06,1.01.05.23-.02.74-.09.87-.12.16-.03.73-.2.8-.23.17-.08.39-.21.51-.31.14-.12.39-.4.62-.69.33-.42.39-.58.5-1.21.08-.49.08-.98,0-1.45-.08-.51-.48-1.28-.96-1.86-.53-.64-1.47-1.25-2.37-1.55-.36-.12-1.02-.25-1.58-.32-.19-.02-.41-.05-.5-.07-.08-.01-.3-.03-.47-.04-.17-.01-.43-.03-.57-.04-.17-.02-.37-.02-.61,0-.32.02-.37.03-.53.1-.47.19-.7.34-.89.59M569.66,632.3c-.1.17-.17.35-.27.62-.22.64-.24,1.12-.08,2.07.09.56.4,1.44.76,2.18.12.25.44.76.65,1.04.25.34.26.35.55.67.37.41.63.58,1.37.94.55.26.98.37,1.67.41.35.02.36.02.59-.04.36-.1.64-.22,1.01-.45.39-.23.5-.33.75-.63.23-.29.41-.55.51-.74.12-.25.25-.59.29-.78.07-.34.07-.92,0-1.64-.03-.32-.06-.46-.11-.63-.14-.45-.3-.77-.57-1.13-.05-.07-.15-.22-.21-.33l-.12-.2-.37-.34c-.34-.32-.48-.43-.79-.64-.05-.03-.15-.1-.24-.16-.32-.22-.58-.38-.74-.46-.4-.22-.81-.45-.88-.5-.17-.12-.52-.28-.74-.33-.28-.07-.75-.08-1.05-.02-.22.04-.84.22-.99.28-.31.13-.47.24-.76.53-.12.12-.17.18-.22.27M570.46,642.01c-.09.13-.28.56-.32.74-.03.13-.07.37-.12.79-.01.09-.02.31-.03.49,0,.27,0,.39.04.59.08.4.23.82.44,1.22.28.52.52.83,1.08,1.35.34.32.44.39.83.62.31.18.43.24.78.34.67.2,1.1.25,1.79.19.55-.05.79-.1,1.21-.24.13-.04.28-.09.34-.11.4-.1.87-.45,1.38-1.01.24-.27.27-.31.41-.57.04-.08.11-.29.13-.42.04-.21,0-.79-.06-1.08-.07-.32-.22-.68-.43-1.07-.19-.35-.37-.62-.6-.87-.26-.29-.33-.33-1.1-.7-.25-.12-.57-.23-.91-.33-.13-.03-.3-.08-.39-.11-.09-.03-.21-.06-.26-.07-.27-.06-.64-.13-.86-.17-.25-.04-.76-.16-1.04-.23-.19-.05-.33-.07-.63-.09-.3-.02-.38-.01-.62.03-.44.09-.79.32-1.06.7M584.83,626.72c-.12.18-.16.34-.2.7-.04.37.01.79.14,1.18.09.27.21.73.29,1.02.29,1.16.35,1.38.61,1.98.33.78.46.99.81,1.32.25.23.46.35.9.48.15.05.45.15.67.23.21.08.54.17.68.2.05,0,.22.01.37,0,.31,0,.66-.07.82-.16.06-.03.18-.09.27-.13.19-.09.52-.34.68-.51.2-.21.46-.59.56-.82.09-.2.22-.61.28-.88.07-.32.1-.58.11-.97,0-.62-.05-.99-.24-1.68-.06-.21-.22-.57-.35-.78-.04-.06-.15-.21-.24-.35-.16-.22-.2-.27-.45-.5-.33-.32-.76-.66-.98-.8-.31-.2-.77-.4-1.1-.49-.24-.06-.73-.14-.9-.14-.1,0-.25,0-.34,0-.09,0-.19,0-.23.02-.04.01-.17.03-.29.05-.22.03-.33.06-.74.21-.17.06-.26.11-.44.23-.36.23-.53.39-.67.6M579.77,635.56c-.26.31-.58.79-.71,1.03-.09.18-.24.62-.29.86-.04.21-.09.85-.09,1.17,0,.11.02.3.03.42.06.41.23,1.21.31,1.5.21.71.32,1.28.35,1.77.02.25.03,1.01.02,1.27-.01.35-.05.82-.08,1.05-.08.57-.14.98-.19,1.24-.14.73-.14,1.3,0,1.88.1.41.4,1.22.57,1.53.18.33.23.39.61.74.45.42.67.58,1.02.72.64.25.72.27,1.17.29.4.02.66,0,1.03-.07.46-.09.79-.22,1.2-.43.54-.29,1.01-.66,1.52-1.2.36-.38.69-.86,1.02-1.49.06-.12.18-.33.25-.46.63-1.13.58-1.06,1.11-1.71.41-.5.68-.8.99-1.07.33-.29.54-.46.79-.62.1-.07.24-.16.32-.22.07-.05.14-.1.15-.1,0,0,.07-.04.14-.09.07-.05.21-.12.33-.18.45-.21.83-.43,1.23-.73.41-.31.61-.48.9-.79.55-.58.86-1.07,1.21-1.87.25-.57.37-1.14.38-1.79,0-.45-.01-.55-.14-.99-.17-.58-.29-.9-.4-1.06-.35-.5-.94-.99-1.54-1.28-.28-.14-.72-.24-1.12-.26-.68-.04-1.44.04-2.45.25-.36.08-.66.12-1.3.18-.78.08-1.02.06-2.43-.19-1.15-.2-1.54-.27-1.89-.32-.18-.03-.38-.06-.45-.07-.33-.06-.79-.09-1.09-.07-.32.02-.68.1-1.12.25-.27.09-.39.15-.67.34-.22.15-.54.38-.56.41,0,0-.06.08-.13.16"/>
      <path class="st1" d="M564.47,593.12c-.21.03-.59.15-.74.23-.16.08-.8.53-.94.65-.09.09-.27.31-.36.47-.11.19-.31.62-.36.77-.02.07-.05.15-.06.16-.02.03-.1.35-.16.65-.03.12-.1.48-.17.79-.22,1.01-.23,1.16-.19,1.78.03.45.05.53.22,1.05.2.61.44,1.08.75,1.48.18.23.54.61.69.73.18.14.59.45.7.52.14.09.66.37.73.39.18.07.42.12.58.13.18.01.56-.01.93-.06.52-.07.69-.14,1.2-.52.4-.3.74-.64,1.02-1.04.3-.42.55-1.25.61-2,.07-.82-.18-1.92-.62-2.76-.18-.34-.56-.89-.9-1.33-.12-.15-.26-.33-.31-.4-.05-.07-.19-.23-.31-.36-.12-.13-.29-.32-.38-.43-.11-.13-.25-.27-.43-.42-.25-.21-.29-.24-.45-.3-.47-.19-.74-.25-1.04-.2M556.3,593.58c-.18.05-.37.13-.62.26-.6.31-.95.64-1.5,1.42-.33.47-.72,1.31-.97,2.09-.09.27-.21.85-.26,1.2-.06.42-.06.43-.07.86-.02.55.04.86.33,1.62.21.57.45.95.91,1.46.23.26.24.26.45.38.32.18.61.29,1.04.39.44.1.59.11.98.07.37-.04.68-.11.88-.18.26-.09.59-.25.75-.35.29-.2.69-.61,1.14-1.18.2-.25.28-.37.36-.53.21-.42.32-.76.38-1.2.01-.09.05-.26.08-.39l.06-.23-.03-.5c-.03-.47-.05-.64-.13-1.01-.01-.05-.04-.18-.06-.28-.08-.38-.15-.68-.2-.85-.14-.44-.27-.89-.28-.97-.04-.2-.18-.56-.3-.75-.15-.25-.48-.58-.74-.74-.19-.12-.76-.43-.91-.49-.31-.12-.5-.16-.92-.15-.17,0-.25,0-.35.04M550.1,601.09c-.15.03-.59.21-.75.31-.11.07-.3.22-.64.48-.07.05-.23.2-.37.33-.2.19-.27.28-.38.45-.23.34-.41.75-.54,1.18-.17.57-.2.96-.17,1.72.02.47.04.58.16,1.02.09.35.15.47.32.79.34.61.61.94,1.15,1.38.43.35.63.48,1.04.67.12.06.27.13.32.16.35.21.94.29,1.7.24.36-.02.42-.03.69-.12.09-.03.28-.13.39-.21.17-.12.55-.56.71-.82.17-.28.32-.64.44-1.07.11-.39.16-.7.18-1.04.02-.39,0-.46-.3-1.27-.09-.26-.24-.56-.42-.87-.07-.11-.16-.27-.2-.35-.04-.08-.11-.19-.14-.23-.15-.23-.37-.54-.5-.72-.15-.2-.44-.65-.58-.89-.1-.17-.19-.28-.39-.51-.2-.22-.26-.27-.47-.4-.37-.24-.79-.32-1.25-.24M571.06,600.16c-.21.05-.36.13-.63.36-.28.24-.54.57-.73.94-.13.26-.35.67-.51.93-.61,1.03-.71,1.23-.94,1.84-.31.79-.36,1.03-.34,1.51.02.34.09.57.31.97.08.14.22.42.32.63.1.21.26.5.35.61.03.04.15.16.26.26.23.21.52.41.7.46.06.02.19.06.29.09.2.07.61.12.85.11.29-.01.74-.1.97-.2.2-.08.59-.29.82-.44.28-.18.48-.34.75-.62.44-.44.65-.74,1-1.37.1-.19.24-.57.29-.8.01-.06.04-.25.07-.42.04-.27.04-.34.03-.67-.02-.46-.08-1.01-.14-1.26-.08-.36-.27-.83-.45-1.12-.13-.22-.43-.61-.55-.73-.07-.07-.18-.18-.24-.24-.06-.06-.14-.13-.18-.15-.04-.02-.15-.09-.24-.17-.18-.13-.28-.19-.67-.36-.16-.07-.26-.1-.47-.15-.41-.08-.65-.09-.9-.03M561.27,602.97c-.4.05-.97.16-1.23.25-.19.06-.6.28-.81.41-.18.12-.66.54-.88.78-.08.08-.2.23-.27.33-.24.34-.68,1.02-.82,1.29-.35.65-.67,1.14-.98,1.51-.16.19-.68.75-.87.93-.25.24-.61.55-.79.7-.45.35-.78.6-1,.75-.61.42-1.01.83-1.32,1.35-.21.36-.57,1.15-.66,1.49-.1.37-.11.45-.08.96.03.62.08.88.23,1.22.28.63.32.69.63,1.03.28.3.47.46.79.66.39.25.71.39,1.16.52.59.17,1.19.23,1.93.2.53-.02,1.09-.13,1.77-.35.13-.04.36-.11.51-.16,1.24-.37,1.15-.35,1.99-.45.64-.08,1.04-.1,1.46-.08.45.02.71.05,1,.1.12.02.29.05.38.07.09.01.17.03.18.03,0,0,.08.02.16.03.08.01.24.06.36.1.46.17.9.27,1.39.33.51.07.78.08,1.2.06.8-.04,1.36-.17,2.17-.49.57-.23,1.06-.56,1.51-1.02.31-.32.38-.4.59-.81.29-.53.42-.85.45-1.04.1-.61.02-1.37-.21-1.99-.11-.3-.35-.67-.62-.97-.46-.5-1.06-.98-1.93-1.53-.31-.2-.56-.38-1.06-.77-.62-.49-.78-.67-1.61-1.83-.68-.95-.92-1.27-1.13-1.54-.11-.14-.23-.3-.27-.36-.2-.27-.51-.62-.73-.81-.24-.21-.56-.4-.97-.6-.26-.12-.39-.16-.72-.23-.26-.05-.65-.1-.69-.09,0,0-.1.01-.2.02"/>
      <path class="st1" d="M535.62,581.35c-.21,0-.6.08-.76.14-.16.06-.86.43-1.01.54-.1.07-.3.28-.41.42-.13.17-.38.58-.45.72-.03.07-.07.14-.08.15-.02.03-.14.34-.24.63-.04.12-.16.46-.26.76-.34.98-.37,1.13-.4,1.74-.02.46-.02.53.09,1.07.13.63.3,1.12.56,1.56.15.25.46.67.6.81.16.16.54.52.64.6.12.1.61.44.68.48.17.09.4.17.56.2.18.04.56.06.93.05.53,0,.7-.06,1.25-.37.43-.25.81-.55,1.13-.91.34-.38.69-1.17.84-1.91.17-.81.05-1.93-.29-2.82-.14-.36-.44-.95-.74-1.43-.1-.16-.22-.36-.26-.43-.04-.07-.16-.25-.26-.39-.1-.14-.25-.35-.32-.47-.09-.14-.22-.29-.38-.47-.22-.24-.26-.27-.41-.36-.44-.25-.7-.33-1.01-.32M527.46,580.83c-.19.03-.38.08-.65.18-.63.23-1.02.52-1.66,1.23-.38.42-.87,1.22-1.22,1.96-.12.25-.31.82-.4,1.16-.11.41-.11.42-.18.84-.09.54-.06.85.13,1.65.14.59.33,1,.73,1.56.2.28.21.29.4.44.3.22.57.36.99.51.43.15.57.18.96.18.37,0,.69-.02.89-.07.27-.06.62-.18.79-.26.31-.16.76-.52,1.27-1.03.23-.23.32-.34.42-.48.26-.39.41-.72.52-1.15.02-.09.08-.25.13-.37l.08-.22.03-.5c.03-.47.03-.64,0-1.02,0-.06-.02-.18-.03-.29-.03-.39-.07-.69-.1-.87-.08-.45-.16-.91-.16-.99-.01-.21-.11-.58-.21-.78-.12-.26-.41-.63-.64-.83-.17-.15-.7-.52-.84-.6-.29-.16-.48-.21-.89-.26-.17-.02-.25-.02-.35,0M520.41,587.55c-.16,0-.61.14-.78.22-.12.06-.33.18-.69.4-.07.05-.26.17-.4.29-.22.17-.3.24-.44.4-.27.31-.5.69-.67,1.11-.23.54-.32.93-.38,1.69-.04.47-.03.59.03,1.04.05.35.09.49.23.82.26.65.5,1.01.98,1.51.38.4.57.55.95.79.12.07.25.16.3.2.33.25.9.4,1.66.44.36.02.42.02.7-.04.09-.02.29-.1.41-.16.18-.1.62-.49.81-.73.21-.26.39-.59.57-1.01.15-.37.25-.68.3-1.01.06-.38.05-.46-.15-1.29-.06-.27-.17-.59-.32-.91-.05-.12-.12-.29-.16-.37-.03-.09-.08-.2-.11-.25-.12-.24-.3-.58-.41-.78-.12-.22-.36-.69-.47-.95-.08-.18-.15-.3-.32-.55-.18-.25-.23-.3-.41-.46-.34-.28-.74-.41-1.21-.38M541.33,589.14c-.22.02-.37.09-.67.28-.31.21-.6.5-.83.85-.16.24-.43.62-.61.86-.73.95-.85,1.14-1.16,1.71-.4.74-.48.98-.52,1.46-.03.34.02.58.19,1,.06.14.17.45.24.67.07.22.2.53.27.65.03.05.13.18.22.29.2.24.47.47.64.54.06.03.18.08.27.13.19.09.6.19.83.21.29.02.75-.01.99-.08.21-.06.62-.21.87-.33.3-.14.52-.28.82-.53.49-.39.74-.66,1.16-1.24.13-.17.31-.54.38-.76.02-.06.07-.25.12-.41.07-.27.08-.33.11-.67.04-.46.04-1.01.01-1.26-.04-.37-.17-.85-.31-1.16-.1-.23-.35-.65-.46-.79-.06-.08-.15-.2-.21-.26-.05-.07-.13-.14-.16-.17-.03-.02-.13-.11-.22-.2-.16-.15-.25-.22-.62-.44-.15-.09-.25-.13-.45-.2-.4-.13-.63-.17-.89-.14M531.27,590.75c-.4,0-.98.04-1.25.1-.19.04-.63.2-.85.31-.19.1-.72.46-.97.67-.09.07-.23.2-.31.29-.28.3-.8.94-.97,1.18-.43.61-.8,1.06-1.15,1.38-.18.17-.77.66-.98.81-.28.21-.67.48-.87.6-.49.3-.85.5-1.08.63-.66.35-1.1.7-1.47,1.18-.26.33-.7,1.08-.83,1.4-.14.35-.16.43-.2.94-.05.62-.03.89.08,1.24.21.65.24.73.51,1.1.24.33.42.52.7.75.36.29.66.48,1.09.66.57.24,1.15.37,1.89.43.53.04,1.1,0,1.8-.14.13-.03.37-.07.52-.09,1.27-.22,1.19-.21,2.03-.21.65,0,1.04.03,1.46.1.44.07.7.13.98.22.11.04.28.09.37.11.09.03.17.05.18.06,0,0,.08.03.15.05.08.02.23.09.34.14.44.22.86.38,1.34.5.5.13.76.17,1.18.2.8.06,1.37,0,2.21-.23.6-.16,1.12-.43,1.63-.83.35-.28.42-.35.69-.73.35-.49.52-.79.57-.97.17-.59.18-1.36.03-2.01-.07-.31-.27-.71-.5-1.04-.39-.55-.93-1.1-1.73-1.75-.28-.23-.51-.44-.96-.89-.55-.56-.69-.76-1.38-2.01-.56-1.02-.76-1.37-.94-1.67-.09-.15-.19-.33-.23-.39-.16-.3-.43-.67-.63-.89-.21-.24-.5-.47-.89-.71-.24-.15-.36-.21-.69-.31-.25-.08-.63-.18-.67-.17,0,0-.1,0-.2,0"/>
      <path class="st1" d="M562.29,558.37c-.21,0-.6.07-.76.12-.17.06-.87.41-1.02.51-.11.07-.31.27-.42.41-.13.17-.39.57-.46.72-.03.07-.07.14-.08.15-.02.03-.15.34-.25.63-.04.12-.17.46-.28.76-.36.97-.4,1.12-.44,1.73-.03.45-.03.53.07,1.07.11.63.28,1.13.53,1.57.14.25.45.68.58.82.16.17.52.53.62.61.12.1.6.45.67.49.16.09.4.18.56.21.18.04.56.07.92.07.53,0,.7-.05,1.26-.35.44-.24.82-.53,1.15-.89.35-.38.72-1.16.88-1.89.18-.81.09-1.93-.23-2.82-.13-.36-.42-.96-.71-1.44-.1-.17-.21-.36-.25-.44-.04-.07-.15-.25-.25-.4-.1-.15-.24-.36-.31-.48-.09-.14-.21-.3-.37-.48-.22-.24-.25-.27-.4-.36-.44-.26-.69-.35-1.01-.34M554.14,557.68c-.19.03-.38.08-.65.17-.64.22-1.03.5-1.69,1.2-.39.42-.9,1.2-1.26,1.93-.12.25-.33.81-.43,1.15-.12.41-.12.42-.19.84-.1.54-.08.85.09,1.65.13.59.31,1,.7,1.57.2.29.2.3.4.44.29.22.56.37.97.53.42.16.57.19.96.2.37,0,.69,0,.89-.05.27-.06.62-.16.79-.25.32-.15.77-.5,1.29-1.01.23-.22.33-.33.43-.47.27-.39.42-.71.54-1.14.02-.08.08-.25.13-.37l.09-.22.04-.5c.04-.47.04-.64.02-1.02,0-.06-.01-.18-.02-.29-.03-.39-.06-.7-.08-.87-.07-.45-.14-.91-.14-1,0-.21-.1-.58-.19-.79-.12-.27-.4-.64-.62-.84-.17-.15-.69-.53-.83-.61-.29-.17-.47-.22-.89-.28-.17-.02-.25-.02-.35-.01M546.95,564.24c-.16,0-.61.12-.78.2-.12.06-.33.17-.7.39-.07.04-.26.17-.41.28-.22.16-.31.24-.44.39-.27.31-.51.68-.7,1.1-.24.54-.34.92-.41,1.68-.05.47-.04.58.01,1.04.04.35.08.49.21.83.25.65.48,1.02.95,1.53.37.41.56.57.93.81.11.07.25.17.29.2.32.25.89.42,1.65.47.36.03.42.02.7-.03.09-.02.29-.09.41-.15.19-.1.63-.48.82-.71.21-.26.4-.58.59-1,.16-.37.26-.67.32-1,.07-.38.06-.46-.12-1.3-.06-.27-.16-.59-.3-.92-.05-.12-.12-.29-.15-.38-.03-.09-.08-.2-.1-.25-.12-.25-.29-.59-.39-.79-.12-.22-.34-.7-.45-.96-.08-.19-.14-.31-.31-.56-.17-.25-.22-.31-.4-.47-.34-.29-.73-.42-1.2-.41M567.83,566.27c-.22.02-.37.08-.67.27-.32.2-.61.49-.85.83-.16.24-.45.61-.63.85-.74.94-.87,1.12-1.19,1.69-.41.73-.5.97-.55,1.44-.03.34,0,.58.17,1.01.06.15.16.45.22.67.07.22.19.53.26.66.03.05.12.18.22.3.2.25.46.47.63.55.06.03.18.09.27.13.18.09.59.21.82.23.29.03.75,0,.99-.06.21-.05.62-.2.87-.32.3-.14.52-.27.83-.51.49-.38.75-.64,1.18-1.22.13-.17.32-.53.4-.75.02-.06.08-.24.13-.41.08-.27.09-.33.12-.66.05-.46.06-1.01.04-1.26-.03-.37-.15-.86-.29-1.17-.1-.23-.34-.66-.44-.8-.06-.08-.15-.2-.2-.27-.05-.07-.12-.15-.16-.17-.03-.02-.13-.11-.22-.2-.16-.16-.25-.23-.62-.46-.15-.1-.25-.14-.45-.21-.4-.14-.63-.18-.89-.16M557.74,567.67c-.4-.01-.98.02-1.25.07-.19.04-.64.19-.86.3-.2.1-.73.44-.98.65-.09.07-.23.2-.31.29-.29.3-.82.92-1,1.16-.44.6-.82,1.04-1.18,1.36-.18.16-.78.64-.99.79-.29.2-.68.46-.88.58-.5.29-.86.49-1.1.6-.66.33-1.11.68-1.49,1.15-.26.33-.72,1.06-.86,1.38-.15.35-.17.43-.22.94-.06.62-.05.89.06,1.25.19.66.22.73.48,1.11.23.33.4.53.69.77.35.3.65.49,1.08.68.56.25,1.14.4,1.88.47.53.05,1.1.02,1.8-.1.13-.02.37-.06.52-.08,1.28-.19,1.19-.18,2.03-.17.65.01,1.04.05,1.45.13.44.08.69.15.97.24.11.04.28.09.36.12.09.03.17.05.17.06,0,0,.08.03.15.05.08.02.23.09.34.15.44.23.85.39,1.33.53.49.14.76.19,1.18.23.8.08,1.37.03,2.22-.19.6-.15,1.13-.41,1.64-.8.36-.27.43-.35.7-.71.36-.49.54-.78.59-.96.18-.59.21-1.35.07-2.01-.07-.31-.25-.72-.48-1.05-.38-.56-.91-1.12-1.7-1.78-.28-.24-.5-.45-.94-.91-.54-.57-.67-.77-1.34-2.04-.54-1.03-.73-1.38-.9-1.69-.09-.16-.19-.33-.22-.4-.16-.3-.42-.68-.61-.91-.21-.24-.49-.48-.88-.73-.24-.16-.36-.22-.68-.33-.25-.09-.63-.19-.67-.19,0,0-.1,0-.2,0"/>
      <path class="st1" d="M534.81,535.21c-.21.01-.6.09-.76.15-.16.06-.85.45-1,.56-.1.08-.3.28-.4.43-.12.17-.37.58-.43.73-.03.07-.07.14-.07.16-.02.03-.13.34-.23.63-.04.12-.15.47-.25.77-.32.99-.35,1.13-.37,1.75-.01.46,0,.53.11,1.07.14.63.33,1.11.6,1.54.15.24.47.66.61.8.16.16.55.51.65.59.13.1.62.43.69.47.17.08.41.16.56.19.18.03.56.05.93.03.53-.02.7-.07,1.24-.4.43-.25.8-.57,1.11-.93.34-.39.67-1.19.8-1.93.15-.81.01-1.93-.34-2.81-.14-.36-.46-.95-.77-1.41-.1-.16-.23-.35-.27-.43-.04-.07-.16-.25-.27-.39-.1-.14-.25-.35-.33-.46-.1-.14-.22-.29-.39-.46-.23-.23-.26-.26-.42-.35-.45-.24-.71-.32-1.02-.3M526.64,534.85c-.19.03-.38.09-.64.19-.63.24-1.01.54-1.64,1.27-.37.43-.85,1.23-1.18,1.98-.11.26-.3.82-.38,1.17-.1.41-.1.42-.16.85-.08.54-.04.85.16,1.65.15.59.35.99.76,1.55.21.28.21.29.41.43.3.21.58.35.99.49.43.15.58.17.96.16.37,0,.69-.04.89-.09.27-.07.62-.19.78-.28.31-.16.75-.54,1.25-1.06.22-.23.31-.34.41-.49.25-.4.39-.73.5-1.16.02-.09.07-.26.12-.38l.08-.22.02-.5c.02-.47.02-.64-.02-1.02,0-.06-.02-.18-.03-.28-.04-.39-.08-.69-.12-.86-.09-.45-.18-.91-.18-.99-.02-.21-.12-.58-.22-.78-.13-.26-.42-.62-.66-.82-.18-.14-.71-.5-.86-.58-.3-.15-.48-.2-.9-.24-.17-.02-.25-.01-.35,0M519.72,541.7c-.16.01-.6.15-.77.23-.12.06-.32.18-.68.42-.07.05-.25.18-.4.3-.22.17-.3.25-.43.41-.26.32-.48.7-.65,1.12-.22.55-.3.93-.34,1.69-.03.47-.02.59.05,1.03.06.35.1.48.24.82.28.64.52,1,1.01,1.49.39.39.58.54.96.77.12.07.25.16.3.19.33.24.9.38,1.66.4.36.01.42,0,.7-.05.09-.02.29-.1.4-.17.18-.1.61-.5.79-.74.2-.27.38-.6.55-1.02.15-.37.23-.68.28-1.02.05-.38.04-.46-.17-1.29-.07-.26-.19-.58-.33-.91-.05-.12-.13-.28-.17-.37-.04-.08-.09-.2-.11-.25-.13-.24-.31-.58-.43-.77-.13-.22-.37-.69-.49-.94-.08-.18-.16-.3-.33-.54-.18-.24-.23-.3-.42-.45-.35-.28-.75-.39-1.22-.36M540.66,542.88c-.22.03-.37.09-.66.3-.31.21-.59.51-.82.86-.15.24-.42.63-.6.87-.71.97-.83,1.16-1.12,1.74-.38.75-.46.99-.49,1.47-.02.34.03.58.21,1,.06.14.17.44.25.66.07.21.21.52.29.65.03.05.13.18.23.29.21.24.48.46.65.53.06.03.19.08.28.12.19.09.6.18.83.19.29.02.75-.03.99-.1.21-.06.61-.23.86-.35.29-.15.51-.29.81-.54.48-.4.73-.67,1.13-1.27.12-.18.3-.54.37-.77.02-.06.07-.25.11-.41.07-.27.07-.33.09-.67.03-.46.02-1.01-.01-1.26-.05-.36-.19-.85-.34-1.16-.11-.23-.36-.65-.47-.78-.06-.08-.16-.19-.21-.26-.06-.07-.13-.14-.16-.16-.04-.02-.14-.11-.23-.19-.16-.15-.26-.22-.63-.43-.16-.09-.25-.13-.46-.19-.4-.12-.64-.16-.89-.12M530.64,544.69c-.4,0-.98.06-1.25.12-.19.04-.63.21-.84.33-.19.1-.71.47-.95.68-.09.07-.22.21-.3.3-.27.31-.78.95-.95,1.2-.41.61-.78,1.07-1.12,1.41-.18.17-.76.67-.96.83-.28.22-.66.49-.85.61-.49.3-.84.52-1.07.65-.65.36-1.09.72-1.44,1.21-.25.34-.68,1.09-.8,1.41-.14.35-.15.43-.18.94-.03.62,0,.89.11,1.24.22.65.25.72.53,1.08.24.32.43.51.72.74.37.29.67.46,1.1.64.57.23,1.16.35,1.9.39.53.03,1.1-.02,1.8-.17.13-.03.37-.08.52-.1,1.27-.24,1.18-.23,2.02-.25.65-.01,1.04,0,1.46.07.44.07.7.12.98.2.11.03.28.08.37.1.09.02.17.05.18.05,0,0,.08.03.15.05.08.02.23.08.34.14.45.21.87.36,1.35.47.5.12.76.16,1.19.18.8.04,1.37-.03,2.21-.27.59-.18,1.11-.45,1.61-.86.34-.28.42-.36.67-.74.34-.5.51-.8.56-.98.16-.59.15-1.36-.01-2.01-.08-.3-.28-.7-.52-1.03-.4-.54-.96-1.08-1.77-1.71-.29-.23-.52-.43-.97-.87-.57-.55-.7-.74-1.42-1.98-.58-1.01-.78-1.35-.97-1.65-.09-.15-.2-.33-.24-.39-.17-.29-.44-.66-.65-.88-.22-.23-.51-.46-.91-.7-.25-.15-.37-.2-.69-.3-.26-.08-.64-.17-.68-.16,0,0-.1,0-.2,0"/>
      <path class="st1" d="M564.69,516.12c-.21.01-.6.09-.76.16-.16.07-.85.45-.99.56-.1.08-.3.29-.4.43-.12.17-.36.59-.43.74-.03.07-.06.14-.07.16-.02.03-.13.34-.22.64-.04.12-.15.47-.24.77-.31.99-.34,1.14-.36,1.75-.01.46,0,.53.12,1.07.14.63.33,1.11.6,1.54.15.24.48.66.62.8.16.16.55.51.65.58.13.1.62.43.69.46.17.08.41.16.56.19.18.03.56.04.93.03.53-.02.7-.08,1.24-.41.43-.26.8-.57,1.11-.94.33-.39.66-1.19.79-1.93.14-.81,0-1.93-.36-2.81-.15-.35-.47-.94-.77-1.41-.11-.16-.23-.35-.27-.42-.04-.07-.17-.25-.27-.39-.1-.14-.26-.35-.33-.46-.1-.14-.22-.29-.39-.46-.23-.23-.26-.26-.42-.34-.45-.24-.71-.31-1.02-.29M556.51,515.82c-.19.03-.38.09-.64.2-.63.25-1.01.55-1.63,1.28-.37.43-.84,1.24-1.17,1.99-.11.26-.29.82-.37,1.17-.1.41-.1.42-.15.85-.07.55-.04.86.17,1.65.16.59.36.99.77,1.54.21.28.22.29.42.42.3.21.58.34,1,.48.43.14.58.17.96.16.37,0,.69-.04.89-.09.27-.07.61-.19.78-.28.31-.17.74-.54,1.24-1.07.22-.23.31-.34.4-.49.25-.4.39-.73.49-1.16.02-.09.07-.26.12-.38l.08-.22.02-.5c.02-.47.01-.64-.03-1.02,0-.06-.02-.18-.03-.28-.04-.39-.09-.69-.12-.86-.09-.45-.18-.91-.19-.99-.02-.21-.13-.57-.23-.78-.13-.26-.43-.62-.66-.81-.18-.14-.71-.5-.86-.57-.3-.15-.48-.2-.9-.24-.17-.01-.25-.01-.35,0M549.64,522.71c-.16.01-.6.15-.77.24-.12.06-.32.19-.68.42-.07.05-.25.18-.4.3-.21.17-.29.25-.43.41-.26.32-.48.7-.65,1.13-.22.55-.29.94-.33,1.7-.02.47-.02.59.06,1.03.06.35.1.48.25.82.28.64.52.99,1.02,1.48.39.39.58.54.97.76.12.07.25.15.3.19.33.24.91.37,1.67.39.36,0,.42,0,.7-.06.09-.02.29-.1.4-.17.18-.1.6-.51.79-.75.2-.27.38-.6.54-1.02.15-.37.23-.68.27-1.02.05-.38.04-.46-.18-1.29-.07-.26-.19-.58-.34-.9-.06-.12-.13-.28-.17-.37-.04-.08-.09-.19-.12-.25-.13-.24-.32-.57-.43-.77-.13-.22-.37-.68-.49-.94-.08-.18-.16-.3-.34-.54-.18-.24-.23-.3-.43-.45-.35-.27-.75-.39-1.22-.35M570.59,523.75c-.22.03-.37.1-.66.3-.31.21-.59.52-.81.87-.15.24-.42.63-.59.88-.7.97-.82,1.16-1.11,1.74-.38.75-.46.99-.48,1.47-.02.34.04.58.22,1,.06.14.18.44.26.66.08.21.21.52.29.64.03.05.13.18.23.29.21.24.48.45.65.52.06.03.19.08.28.12.19.08.6.18.83.19.29.01.75-.03.98-.1.21-.06.61-.23.86-.36.29-.15.51-.3.81-.55.48-.4.72-.68,1.13-1.27.12-.18.29-.54.36-.77.02-.06.07-.25.11-.41.06-.27.07-.33.09-.67.02-.46.01-1.01-.02-1.26-.05-.36-.19-.85-.34-1.16-.11-.23-.37-.64-.48-.78-.06-.07-.16-.19-.22-.26-.06-.07-.13-.14-.17-.16-.04-.02-.14-.11-.23-.19-.16-.15-.26-.21-.64-.43-.16-.09-.25-.13-.46-.19-.4-.12-.64-.15-.89-.12M560.58,525.63c-.4,0-.98.07-1.25.13-.19.05-.63.22-.84.34-.19.1-.7.48-.95.69-.09.08-.22.21-.3.3-.27.31-.78.96-.94,1.21-.41.62-.77,1.08-1.12,1.41-.18.17-.75.68-.96.84-.28.22-.66.49-.85.62-.48.31-.84.53-1.07.65-.65.36-1.08.73-1.44,1.22-.25.34-.67,1.1-.8,1.42-.13.36-.15.43-.17.94-.03.62,0,.89.12,1.24.22.65.26.72.54,1.08.25.32.43.51.72.73.37.29.67.46,1.11.63.57.23,1.16.34,1.9.38.53.03,1.1-.03,1.79-.19.13-.03.37-.08.52-.11,1.27-.25,1.18-.24,2.02-.26.65-.02,1.04,0,1.46.06.44.06.7.12.98.2.11.03.28.08.37.1.09.02.17.05.18.05,0,0,.08.03.15.05.08.02.23.08.35.13.45.21.87.35,1.35.46.5.11.76.15,1.19.17.8.04,1.37-.04,2.2-.29.59-.18,1.11-.46,1.6-.87.34-.29.41-.37.67-.75.33-.5.5-.8.55-.99.16-.59.15-1.36-.03-2.01-.08-.3-.29-.7-.53-1.03-.41-.54-.96-1.07-1.78-1.7-.29-.22-.52-.43-.98-.87-.57-.55-.71-.74-1.43-1.97-.59-1.01-.79-1.35-.98-1.64-.09-.15-.2-.32-.24-.39-.17-.29-.45-.66-.65-.88-.22-.23-.51-.45-.91-.69-.25-.15-.37-.2-.69-.29-.26-.07-.64-.16-.68-.15,0,0-.1,0-.2,0"/>
      <g>
        <path class="st2" d="M723.61,697.65v-3.03h4.93v-31.85h-4.93v-3.03h7.09c.76,0,1.48-.02,2.17-.05.69-.04,1.41-.07,2.17-.11.76-.03,1.58-.07,2.46-.11.88-.03,1.87-.05,2.95-.05,1.59,0,3.21.12,4.87.35,1.66.24,3.16.68,4.49,1.33,1.34.65,2.43,1.57,3.28,2.75.85,1.18,1.27,2.71,1.27,4.6,0,.98-.17,1.94-.51,2.88-.34.94-.85,1.81-1.52,2.61-.67.8-1.51,1.51-2.52,2.12s-2.19,1.07-3.52,1.36v.22c1.19.18,2.38.49,3.57.92,1.19.43,2.27,1.02,3.22,1.75.96.74,1.72,1.65,2.3,2.72s.87,2.37.87,3.88c0,1.94-.48,3.61-1.44,5.02-.96,1.4-2.21,2.55-3.76,3.45-1.55.9-3.31,1.56-5.28,1.97-1.97.41-3.96.62-5.99.62-1.41,0-2.99-.05-4.74-.16s-3.44-.16-5.06-.16h-6.39ZM737.53,677.07c.72,0,1.52-.03,2.41-.08.88-.05,1.63-.12,2.25-.19,1.84-.58,3.32-1.52,4.44-2.81,1.12-1.29,1.68-2.81,1.68-4.56,0-2.4-.76-4.17-2.27-5.29-1.52-1.13-3.57-1.69-6.17-1.69-1.23,0-2.27.03-3.11.08s-1.56.12-2.14.19v14.35h2.93ZM740.24,694.94c1.41,0,2.72-.19,3.93-.57,1.21-.38,2.25-.91,3.11-1.6s1.54-1.51,2.03-2.46c.49-.96.73-2.01.73-3.17,0-1.44-.3-2.64-.89-3.6-.6-.96-1.39-1.72-2.38-2.27s-2.16-.95-3.49-1.17c-1.34-.22-2.74-.32-4.23-.32h-4.44v14.68c.54.15,1.2.26,1.98.35.78.09,2,.14,3.66.14Z"/>
        <path class="st2" d="M785.3,693.91c-.94,1.34-2.28,2.39-4,3.17-1.72.78-3.73,1.17-6.01,1.17s-4.51-.35-6.34-1.06-3.36-1.7-4.6-2.98-2.17-2.83-2.8-4.66c-.64-1.82-.95-3.85-.95-6.09,0-4.84,1.21-8.51,3.64-11.02,2.43-2.51,5.84-3.76,10.23-3.76,1.45,0,2.87.18,4.27.54,1.4.36,2.64.96,3.73,1.79,1.09.83,1.97,1.93,2.64,3.3.67,1.37,1.01,3.07,1.01,5.09,0,.61-.04,1.26-.11,1.95-.07.69-.18,1.41-.33,2.17h-19.01c0,1.59.21,3.03.63,4.33.42,1.3,1.06,2.42,1.91,3.36.86.94,1.92,1.67,3.2,2.19,1.27.52,2.79.79,4.53.79,1.42,0,2.74-.23,3.96-.7,1.22-.47,2.19-1.01,2.92-1.63l1.47,2.06ZM774.17,671.22c-1.12,0-2.11.16-2.96.49-.85.33-1.59.87-2.2,1.63-.62.76-1.11,1.76-1.47,3.01-.36,1.25-.6,2.79-.71,4.63h13.11c.04-.32.06-.66.08-1,.02-.34.03-.66.03-.95,0-2.38-.48-4.28-1.44-5.69-.96-1.41-2.44-2.11-4.43-2.11Z"/>
        <path class="st2" d="M790.28,671.92h-3.19v-2.71h13.97v2.71h-4.55l7.37,17.98,1.08,4.12h.27l1.03-4.17,5.8-17.93h-3.3v-2.71h10.4v2.71h-3.47l-8.88,25.73c-.51,1.48-1.06,2.84-1.65,4.09-.6,1.25-1.17,2.35-1.73,3.3-.56.96-1.1,1.73-1.62,2.33-.52.59-.97.96-1.33,1.11h-5.47v-4.87h5.45c.25-.29.48-.58.7-.87s.43-.65.64-1.08.45-.97.7-1.6c.25-.63.53-1.44.86-2.41h-1.9l-11.16-25.73Z"/>
        <path class="st2" d="M819.85,683.46c0-2.38.34-4.49,1.03-6.34.69-1.84,1.65-3.38,2.89-4.63,1.24-1.25,2.76-2.19,4.54-2.84s3.76-.97,5.92-.97c2.52,0,4.69.35,6.51,1.05,1.82.7,3.31,1.7,4.46,2.98s2.01,2.83,2.57,4.66c.56,1.82.84,3.85.84,6.09,0,2.38-.33,4.49-1,6.31-.67,1.82-1.62,3.36-2.87,4.61-1.24,1.25-2.76,2.19-4.54,2.84s-3.77.98-5.97.98c-2.45,0-4.58-.35-6.38-1.06-1.8-.7-3.3-1.7-4.49-2.98s-2.07-2.83-2.65-4.63c-.58-1.81-.86-3.83-.86-6.07ZM825.92,683.46c0,1.73.16,3.34.49,4.82.33,1.48.86,2.76,1.6,3.85.74,1.08,1.7,1.94,2.88,2.57s2.62.95,4.32.95c2.14,0,3.89-.97,5.27-2.92,1.38-1.95,2.07-5.04,2.07-9.26,0-1.73-.16-3.35-.49-4.85-.33-1.5-.84-2.8-1.55-3.9-.71-1.1-1.61-1.96-2.72-2.57-1.11-.61-2.45-.92-4.05-.92-2.39,0-4.29.98-5.71,2.92-1.41,1.95-2.12,5.06-2.12,9.32Z"/>
        <path class="st2" d="M885.28,697.65h-13.27v-2.71h3.57v-13.59c0-2.85-.43-5.07-1.3-6.66-.87-1.59-2.46-2.38-4.77-2.38-1.01,0-1.94.16-2.79.49-.85.33-1.61.76-2.27,1.3-.67.54-1.25,1.17-1.73,1.89-.49.72-.86,1.48-1.11,2.27v16.68h3.57v2.71h-13.27v-2.71h4.01v-23.02h-4.01v-2.71h9.69v5.63h.05c.83-1.73,2.05-3.2,3.66-4.39,1.61-1.19,3.55-1.79,5.82-1.79,1.62,0,3.07.17,4.33.51,1.26.34,2.32.97,3.17,1.87.85.9,1.5,2.11,1.95,3.63.45,1.52.68,3.45.68,5.8v14.46h4.01v2.71Z"/>
        <path class="st2" d="M907.86,692.01c-.22.83-.57,1.63-1.06,2.38-.49.76-1.08,1.43-1.79,2s-1.51,1.03-2.41,1.35-1.88.49-2.92.49c-4.01,0-7.01-1.18-9.02-3.55s-3.01-6.06-3.01-11.08c0-2.42.33-4.56,1-6.42.67-1.86,1.62-3.42,2.84-4.68,1.23-1.26,2.71-2.22,4.44-2.87,1.73-.65,3.66-.97,5.8-.97.76,0,1.41.02,1.95.05.54.04,1.05.09,1.52.16.47.07.92.17,1.35.3s.9.26,1.41.41v-9.86h-4.49v-2.71h10.18v37.91h3.79v2.71h-8.88l-.49-5.63h-.22ZM900.9,694.61c1.99,0,3.55-.56,4.68-1.68,1.12-1.12,1.92-2.67,2.39-4.66v-15.98c-.73-.36-1.53-.63-2.42-.81-.89-.18-2.06-.27-3.51-.27-1.34,0-2.53.29-3.56.87-1.03.58-1.9,1.41-2.61,2.49-.71,1.08-1.24,2.39-1.6,3.93-.36,1.54-.54,3.24-.54,5.12,0,1.52.14,2.94.41,4.28.27,1.34.7,2.5,1.28,3.49.58.99,1.32,1.78,2.23,2.36.91.58,1.99.87,3.26.87Z"/>
        <path class="st2" d="M928.33,669.21h4.82v-6.77h5.69v6.77h8.99v3.47h-8.99v15.81c0,2.27.29,3.88.87,4.82.58.94,1.52,1.41,2.82,1.41,1.12,0,2.08-.2,2.9-.6.81-.4,1.56-.83,2.25-1.3l1.35,2.11c-.33.32-.77.68-1.33,1.06-.56.38-1.2.73-1.92,1.06-.72.32-1.53.6-2.41.81-.89.22-1.8.33-2.74.33-2.42,0-4.27-.62-5.55-1.87s-1.92-3.31-1.92-6.2v-17.44h-4.82v-3.47Z"/>
        <path class="st2" d="M984.82,697.65h-13.27v-2.71h3.57v-13.32c0-3-.4-5.3-1.19-6.91s-2.2-2.41-4.22-2.41c-1.08,0-2.1.18-3.03.54-.94.36-1.77.83-2.49,1.41-.72.58-1.35,1.22-1.87,1.92-.52.7-.91,1.4-1.16,2.08v16.68h3.57v2.71h-13.27v-2.71h4.01v-35.2h-4.6v-2.71h10.29v17.93h.05c.83-1.77,2.14-3.26,3.93-4.47,1.79-1.21,3.93-1.81,6.42-1.81,1.41,0,2.69.17,3.85.51,1.16.34,2.13.97,2.92,1.87.79.9,1.41,2.11,1.84,3.63s.65,3.45.65,5.8v14.46h4.01v2.71Z"/>
        <path class="st2" d="M1011.9,693.91c-.94,1.34-2.28,2.39-4,3.17-1.72.78-3.73,1.17-6.01,1.17s-4.51-.35-6.34-1.06c-1.83-.7-3.36-1.7-4.6-2.98s-2.17-2.83-2.8-4.66c-.64-1.82-.95-3.85-.95-6.09,0-4.84,1.21-8.51,3.64-11.02,2.43-2.51,5.84-3.76,10.23-3.76,1.45,0,2.87.18,4.27.54s2.64.96,3.73,1.79c1.09.83,1.97,1.93,2.64,3.3.67,1.37,1.01,3.07,1.01,5.09,0,.61-.04,1.26-.11,1.95-.07.69-.18,1.41-.33,2.17h-19.01c0,1.59.21,3.03.63,4.33.42,1.3,1.06,2.42,1.91,3.36.86.94,1.92,1.67,3.2,2.19,1.27.52,2.79.79,4.53.79,1.42,0,2.74-.23,3.96-.7s2.19-1.01,2.92-1.63l1.48,2.06ZM1000.78,671.22c-1.12,0-2.11.16-2.96.49-.85.33-1.59.87-2.2,1.63-.61.76-1.11,1.76-1.47,3.01s-.6,2.79-.71,4.63h13.11c.04-.32.06-.66.08-1,.02-.34.03-.66.03-.95,0-2.38-.48-4.28-1.44-5.69-.96-1.41-2.44-2.11-4.43-2.11Z"/>
        <path class="st2" d="M1028.37,659.73h-4.49v-2.71h10.18v17.77h.16c.68-1.91,1.84-3.41,3.46-4.5s3.44-1.62,5.46-1.62c3.67,0,6.49,1.16,8.45,3.47,1.96,2.31,2.94,5.9,2.94,10.78s-1.36,8.82-4.08,11.4c-2.72,2.58-6.6,3.87-11.65,3.87-1.01,0-2.03-.06-3.05-.19-1.03-.13-2.02-.29-2.97-.49-.95-.2-1.81-.42-2.57-.68s-1.37-.52-1.84-.81v-36.29ZM1041.36,672.3c-1.95,0-3.51.59-4.68,1.76-1.17,1.17-2.05,2.68-2.63,4.52v15.76c.72.4,1.6.71,2.63.95,1.03.23,2.14.35,3.33.35,2.67,0,4.75-1.08,6.23-3.25,1.48-2.17,2.22-5.33,2.22-9.48,0-1.48-.13-2.87-.38-4.17-.25-1.3-.67-2.43-1.25-3.38-.58-.96-1.31-1.71-2.19-2.25-.89-.54-1.98-.81-3.28-.81Z"/>
        <path class="st2" d="M1081.17,690.12c0,.83.02,1.67.05,2.52.04.85.09,1.62.16,2.3h3.63v2.71h-8.66l-.55-5.15h-.27c-.18.72-.51,1.43-1,2.11-.49.69-1.1,1.3-1.84,1.84-.74.54-1.62.98-2.63,1.3s-2.13.49-3.36.49-2.36-.18-3.38-.54c-1.03-.36-1.92-.87-2.68-1.52-.76-.65-1.35-1.43-1.76-2.36-.42-.92-.62-1.96-.62-3.11,0-1.77.37-3.23,1.11-4.39s1.83-2.07,3.28-2.74c1.44-.67,3.25-1.15,5.42-1.43s4.69-.45,7.58-.49c.07-.57.11-1.12.11-1.63v-1.53c0-2.22-.38-3.9-1.14-5.06-.76-1.16-2.11-1.74-4.06-1.74-.72,0-1.5.04-2.33.11s-1.59.28-2.27.64v4.89h-4.87v-6.01c1.31-.69,2.85-1.3,4.63-1.84,1.78-.54,3.87-.81,6.26-.81,2.07,0,3.73.26,4.98.79,1.25.52,2.22,1.21,2.89,2.06.67.85,1.11,1.81,1.31,2.87.2,1.07.3,2.12.3,3.17,0,2.27-.05,4.45-.14,6.53-.09,2.08-.14,4.09-.14,6.04ZM1069.2,694.61c.87,0,1.64-.14,2.33-.41.69-.27,1.29-.61,1.81-1.03.52-.41.97-.87,1.35-1.38.38-.51.7-.99.95-1.46v-6.44c-2.35,0-4.25.15-5.71.46-1.46.31-2.61.71-3.44,1.22-.83.51-1.4,1.11-1.71,1.81-.31.7-.46,1.45-.46,2.25,0,1.62.43,2.86,1.3,3.71s2.06,1.27,3.58,1.27Z"/>
        <path class="st2" d="M1117.19,669.21v3.47h-6.34c.51.51.98,1.21,1.41,2.11.43.9.65,1.98.65,3.25,0,2.67-1.05,4.82-3.14,6.44s-5.11,2.44-9.04,2.44c-.72,0-1.34,0-1.84-.03s-1.05-.1-1.62-.24c-.18.36-.41.75-.68,1.17-.27.41-.41.86-.41,1.33,0,.76.47,1.33,1.41,1.71.94.38,2.11.72,3.52,1.03,1.41.31,2.94.61,4.6.92,1.66.31,3.2.76,4.63,1.35s2.61,1.38,3.55,2.36c.94.97,1.41,2.26,1.41,3.85,0,1.37-.35,2.57-1.05,3.6-.7,1.03-1.7,1.88-2.98,2.55-1.28.67-2.81,1.17-4.58,1.49s-3.7.49-5.8.49c-4.51,0-7.89-.6-10.13-1.79s-3.36-2.83-3.36-4.93.69-3.57,2.06-4.66c1.37-1.08,3.3-1.98,5.79-2.71-.94-.4-1.7-.83-2.27-1.3-.58-.47-.87-1.17-.87-2.11,0-.43.11-.87.32-1.33s.5-.88.87-1.3c.36-.41.76-.79,1.19-1.14.43-.34.85-.62,1.25-.84-2.31-.61-4.09-1.66-5.33-3.14s-1.87-3.25-1.87-5.31c0-2.63,1.03-4.75,3.09-6.34,2.06-1.59,5.09-2.38,9.1-2.38h16.47ZM1109.61,701.65c0-1.19-.42-2.14-1.27-2.84-.85-.7-1.91-1.28-3.2-1.73-1.28-.45-2.66-.82-4.14-1.11-1.48-.29-2.87-.63-4.17-1.03-1.52.9-2.52,1.81-3.01,2.74s-.73,1.9-.73,2.95c0,1.52.76,2.78,2.27,3.79s3.72,1.52,6.61,1.52c1.48,0,2.71-.12,3.68-.35.98-.23,1.76-.55,2.36-.95.6-.4,1.01-.85,1.25-1.35.23-.51.35-1.05.35-1.63ZM1094.22,677.93c0,.94.11,1.81.32,2.6.22.79.57,1.47,1.06,2.03.49.56,1.15,1,1.98,1.33.83.32,1.88.49,3.14.49,2.31,0,3.97-.59,4.98-1.76,1.01-1.17,1.52-2.74,1.52-4.69,0-.76-.03-1.39-.08-1.89-.05-.51-.13-.96-.22-1.35-.09-.4-.19-.75-.3-1.06-.11-.31-.22-.62-.32-.95-.83-.36-1.72-.61-2.65-.73s-1.91-.19-2.92-.19c-2.46,0-4.15.51-5.09,1.52-.94,1.01-1.41,2.56-1.41,4.66Z"/>
      </g>
      <path class="st1" d="M679.59,677.65c-.04.21-.06.61-.04.77.02.17.23.93.3,1.1.05.12.2.36.32.49.14.16.48.5.61.6.06.05.12.1.13.11.03.03.3.21.56.37.11.07.42.26.68.43.88.55,1.01.62,1.61.78.44.12.51.13,1.07.15.64.02,1.16-.04,1.64-.2.27-.09.76-.3.92-.4.2-.12.63-.41.73-.48.13-.1.57-.49.62-.56.12-.14.26-.35.32-.5.08-.17.18-.53.26-.89.11-.52.1-.7-.08-1.3-.14-.48-.35-.92-.63-1.31-.3-.42-.99-.94-1.67-1.25-.75-.34-1.87-.48-2.81-.35-.38.05-1.03.22-1.56.4-.18.06-.4.13-.48.16-.08.02-.28.1-.44.17-.16.07-.4.16-.53.21-.16.06-.34.14-.54.26-.28.16-.32.19-.44.32-.34.37-.48.61-.54.91M677.25,685.49c-.01.19,0,.39.03.67.08.67.28,1.11.83,1.9.33.47.99,1.12,1.63,1.63.22.17.72.49,1.04.65.38.2.38.2.78.36.51.21.82.25,1.64.25.61,0,1.04-.1,1.68-.36.32-.13.33-.14.52-.3.28-.24.48-.47.72-.85.25-.38.31-.52.39-.89.08-.36.13-.68.13-.88,0-.28-.03-.64-.08-.83-.08-.34-.34-.86-.72-1.47-.17-.27-.26-.39-.38-.51-.32-.34-.61-.56-1-.77-.08-.04-.23-.13-.34-.21l-.19-.13-.48-.14c-.45-.14-.62-.17-.99-.23-.06,0-.18-.03-.28-.04-.39-.05-.69-.09-.87-.1-.46-.02-.92-.05-1.01-.06-.2-.03-.59-.02-.81.03-.29.06-.71.26-.95.44-.18.14-.66.56-.77.69-.22.25-.32.42-.45.81-.06.16-.07.23-.08.34M682.21,693.87c-.03.15,0,.62.04.81.03.13.1.36.24.76.03.08.11.29.19.46.11.25.17.35.29.51.25.33.56.64.93.91.48.35.83.52,1.56.74.45.14.56.16,1.02.2.36.03.49.02.85-.03.69-.11,1.09-.26,1.69-.61.47-.28.67-.43.98-.75.1-.1.21-.21.26-.25.31-.26.59-.78.8-1.51.1-.35.11-.4.12-.69,0-.09-.03-.31-.06-.43-.05-.2-.34-.71-.53-.95-.21-.26-.49-.52-.85-.78-.33-.23-.6-.39-.92-.52-.36-.15-.44-.15-1.29-.15-.27,0-.61.04-.96.1-.13.02-.31.06-.4.07-.09.01-.21.04-.27.05-.26.06-.64.16-.85.22-.24.07-.76.19-1.03.24-.2.04-.33.08-.61.19-.28.12-.35.15-.54.3-.35.27-.57.63-.65,1.09M688.45,673.85c-.03.22,0,.38.13.71.13.35.35.7.64,1,.2.21.51.56.7.79.77.92.92,1.09,1.41,1.51.63.55.85.69,1.3.83.33.1.57.11,1.02.04.15-.02.47-.06.7-.08.23-.02.56-.08.7-.12.05-.02.2-.09.34-.15.28-.14.56-.35.67-.5.04-.05.12-.16.18-.24.13-.16.32-.54.39-.76.09-.28.15-.73.15-.98,0-.22-.07-.65-.13-.92-.07-.32-.16-.57-.33-.92-.27-.56-.47-.87-.95-1.41-.14-.16-.45-.42-.66-.54-.06-.03-.22-.13-.37-.21-.24-.13-.3-.15-.63-.25-.44-.14-.97-.27-1.23-.3-.36-.04-.87-.02-1.2.04-.25.05-.71.19-.87.27-.09.04-.23.11-.3.14-.08.04-.17.09-.2.12-.03.03-.14.11-.24.17-.19.12-.27.2-.57.51-.12.13-.19.21-.3.4-.22.36-.31.58-.34.84M687.77,684.01c-.09.39-.18.97-.19,1.24,0,.2.05.66.11.9.05.21.29.8.43,1.09.05.1.15.27.22.37.23.34.73.99.93,1.21.5.55.85,1.02,1.09,1.43.12.21.47.9.57,1.14.14.32.31.76.39.98.18.55.3.94.37,1.2.19.72.44,1.23.82,1.7.26.32.89.93,1.18,1.12.31.22.38.25.87.4.59.18.86.23,1.23.2.68-.05.76-.07,1.18-.25.37-.16.6-.29.89-.51.37-.28.61-.54.89-.92.36-.5.62-1.04.85-1.75.16-.5.24-1.07.27-1.78,0-.14.02-.37.02-.53.07-1.29.06-1.2.25-2.02.15-.63.26-1.01.42-1.4.17-.41.29-.65.44-.9.06-.1.15-.25.19-.33.04-.08.09-.15.09-.16,0,0,.05-.07.08-.14.04-.07.14-.2.22-.3.31-.38.56-.75.79-1.19.24-.45.34-.7.46-1.11.24-.77.31-1.34.27-2.21-.03-.62-.17-1.19-.44-1.77-.19-.4-.25-.49-.56-.83-.4-.45-.65-.69-.82-.78-.54-.3-1.28-.48-1.95-.48-.31,0-.75.1-1.13.26-.63.26-1.28.66-2.09,1.3-.29.22-.54.4-1.09.73-.67.41-.89.5-2.27.89-1.12.32-1.5.43-1.84.54-.17.05-.36.11-.43.13-.33.09-.75.27-1.01.41-.28.16-.57.38-.9.71-.2.2-.28.31-.46.6-.14.23-.32.58-.32.62,0,0-.02.09-.05.2"/>
    </g>
  </g>
</svg>